<svg width="235" height="135" viewBox="0 0 235 135" fill="none" xmlns="http://www.w3.org/2000/svg">
<path opacity="0.07" d="M13.5632 124.311C22.2907 131.437 34.9853 135 51.2502 135H117.897L119.484 125.499L138.129 21.7742H181.37C188.907 21.3783 196.048 23.3578 202.395 27.3167C204.775 29.2962 206.759 31.6715 208.346 34.4428C209.536 37.2141 210.329 40.3812 209.932 43.5484C210.329 47.9032 209.536 52.654 207.552 56.6129C205.965 60.5719 203.188 64.5308 199.618 67.302C192.874 72.8446 183.75 75.2199 171.452 75.2199L167.088 96.2023C179.783 96.2023 192.477 94.2229 204.775 89.4721C213.899 85.5132 221.437 78.783 226.991 70.4692C232.545 61.7595 235.322 51.4663 234.925 40.7771C235.322 35.2346 234.131 29.2962 231.751 24.1496C229.371 19.0029 225.801 14.2522 221.437 10.6891C212.709 3.56305 200.015 0 183.75 0H117.103L115.516 9.50146L96.8713 113.226H53.6304C46.093 113.622 38.9523 111.642 32.605 107.683C30.2248 105.704 27.8446 103.328 26.6545 100.557C25.4643 97.7859 24.6709 94.6188 25.0676 91.4516C24.6709 87.0968 25.4643 82.346 27.4479 78.3871C29.0347 74.4282 31.8116 70.4692 35.382 67.6979C42.126 62.1554 51.6469 59.7801 63.5481 59.7801L67.9118 38.4018C55.2172 38.4018 42.5227 40.3812 30.2248 45.132C21.1006 49.0909 13.5632 55.8211 8.00929 64.1349C2.45542 72.8446 -0.321525 83.1378 0.0751801 93.827C-0.321525 99.3695 0.868592 105.308 3.24883 110.455C5.62906 115.997 9.1994 120.748 13.5632 124.311Z" fill="url(#paint0_linear_648_1012)"/>
<g filter="url(#filter0_d_648_1012)">
<path d="M79.9058 87.8747C83.0626 90.4472 87.6542 91.7334 93.5373 91.7334H117.643L118.217 88.3035L124.961 50.8603H140.602C143.328 50.7174 145.911 51.4319 148.207 52.8611C149.068 53.5756 149.785 54.4331 150.359 55.4335C150.789 56.4339 151.076 57.5772 150.933 58.7205C151.076 60.2925 150.789 62.0075 150.072 63.4366C149.498 64.8658 148.494 66.2949 147.202 67.2953C144.763 69.2961 141.463 70.1535 137.015 70.1535L135.436 77.7279C140.028 77.7279 144.619 77.0134 149.068 75.2984C152.368 73.8693 155.094 71.4398 157.103 68.4386C159.112 65.2945 160.116 61.5788 159.973 57.7201C160.116 55.7193 159.686 53.5756 158.825 51.7178C157.964 49.8599 156.673 48.1449 155.094 46.8587C151.937 44.2863 147.346 43.0001 141.463 43.0001H117.357L116.783 46.43L110.039 83.8732H94.3982C91.6719 84.0161 89.0891 83.3015 86.7933 81.8724C85.9324 81.1578 85.0714 80.3004 84.641 79.3C84.2105 78.2996 83.9235 77.1563 84.067 76.013C83.9235 74.4409 84.2105 72.726 84.9279 71.2968C85.5019 69.8677 86.5063 68.4386 87.7977 67.4382C90.237 65.4374 93.6808 64.5799 97.9855 64.5799L99.5638 56.8626C94.9722 56.8626 90.3805 57.5772 85.9324 59.2921C82.6321 60.7213 79.9058 63.1508 77.897 66.152C75.8881 69.2961 74.8837 73.0118 75.0272 76.8704C74.8837 78.8712 75.3142 81.0149 76.1751 82.8728C77.036 84.8736 78.3274 86.5885 79.9058 87.8747Z" fill="url(#paint1_linear_648_1012)"/>
</g>
<defs>
<filter id="filter0_d_648_1012" x="69" y="43.0001" width="97" height="60.7333" filterUnits="userSpaceOnUse" color-interpolation-filters="sRGB">
<feFlood flood-opacity="0" result="BackgroundImageFix"/>
<feColorMatrix in="SourceAlpha" type="matrix" values="0 0 0 0 0 0 0 0 0 0 0 0 0 0 0 0 0 0 127 0" result="hardAlpha"/>
<feOffset dy="6"/>
<feGaussianBlur stdDeviation="3"/>
<feComposite in2="hardAlpha" operator="out"/>
<feColorMatrix type="matrix" values="0 0 0 0 0 0 0 0 0 0 0 0 0 0 0 0 0 0 0.3 0"/>
<feBlend mode="normal" in2="BackgroundImageFix" result="effect1_dropShadow_648_1012"/>
<feBlend mode="normal" in="SourceGraphic" in2="effect1_dropShadow_648_1012" result="shape"/>
</filter>
<linearGradient id="paint0_linear_648_1012" x1="214.9" y1="5.24639" x2="23.9943" y2="128.118" gradientUnits="userSpaceOnUse">
<stop offset="0.0137672" stop-color="#02A3FE"/>
<stop offset="0.5677" stop-color="#6876EE"/>
<stop offset="0.981" stop-color="#6876EE"/>
</linearGradient>
<linearGradient id="paint1_linear_648_1012" x1="152.73" y1="44.8939" x2="83.7588" y2="89.3733" gradientUnits="userSpaceOnUse">
<stop offset="0.0137672" stop-color="#02A3FE"/>
<stop offset="0.5677" stop-color="#6876EE"/>
<stop offset="0.981" stop-color="#6876EE"/>
</linearGradient>
</defs>
</svg>
