<svg width="20" height="20" viewBox="0 0 20 20" fill="none" xmlns="http://www.w3.org/2000/svg">
<g opacity="0.85">
<path d="M8.33366 15.0001C9.87199 15.0001 11.2862 14.4709 12.4145 13.5934L16.0778 17.2567L17.2562 16.0784L13.5928 12.4151C14.4712 11.2859 15.0003 9.87175 15.0003 8.33341C15.0003 4.65758 12.0095 1.66675 8.33366 1.66675C4.65783 1.66675 1.66699 4.65758 1.66699 8.33341C1.66699 12.0092 4.65783 15.0001 8.33366 15.0001ZM8.33366 3.33341C11.0912 3.33341 13.3337 5.57591 13.3337 8.33341C13.3337 11.0909 11.0912 13.3334 8.33366 13.3334C5.57616 13.3334 3.33366 11.0909 3.33366 8.33341C3.33366 5.57591 5.57616 3.33341 8.33366 3.33341Z" fill="white"/>
</g>
</svg>
