<svg width="56" height="55" viewBox="0 0 56 55" fill="none" xmlns="http://www.w3.org/2000/svg">
<rect width="56" height="55" fill="#F5F5F5"/>
<g id="Frame 48095458">
<rect width="1920" height="7520" transform="translate(-1427 -5526)" fill="#0B0F19"/>
<g id="About">
<rect id="bg" opacity="0.04" x="-1427" y="-422" width="1920" height="869" fill="white"/>
<g id="images">
<g id="image">
<rect x="-125" y="-24" width="306" height="203" rx="8" fill="white" fill-opacity="0.04"/>
<g id="Layer_1" opacity="0.4" clip-path="url(#clip0_0_1)">
<path id="Vector" d="M38.3747 41.7148C38.3861 41.7758 38.3975 41.8359 38.4089 41.8969C39.89 41.6443 41.3701 41.3802 42.854 41.1458C43.2291 41.0867 43.4213 40.9075 43.5708 40.57C44.2828 38.9581 44.9643 37.3281 45.7629 35.7601C46.3349 34.6372 46.6234 33.5038 46.4768 32.2598C46.3902 31.524 46.3273 30.7814 46.1846 30.055C45.6325 27.2507 44.2495 24.9782 41.8232 23.4035C39.2799 21.7535 36.4138 21.0986 33.4603 20.7354C33.1462 20.6973 32.7787 20.6582 32.5075 20.7802C29.4977 22.1281 26.5061 22.1347 23.5078 20.7564C23.3517 20.6839 23.1489 20.6792 22.9719 20.6916C22.6416 20.7154 22.3151 20.7783 21.9867 20.8193C19.9031 21.0805 17.8804 21.5695 15.9634 22.4436C13.461 23.5855 11.5345 25.3071 10.4894 27.9198C9.70598 29.8787 9.508 31.9224 9.55369 34.0061C9.55559 34.0967 9.587 34.1911 9.62507 34.2749C10.5969 36.4254 11.5659 38.5778 12.5568 40.7197C12.6348 40.8874 12.8528 41.0552 13.0346 41.099C13.797 41.2849 14.5661 41.4527 15.3419 41.5709C16.1081 41.6881 16.8839 41.7377 17.7872 41.8302C15.7178 39.9294 13.7637 38.1355 11.7458 36.2815C12.6729 36.169 13.5105 36.0603 14.35 35.9669C15.6036 35.8277 16.8591 35.7048 18.1136 35.5637C19.6966 35.3854 21.2795 35.2053 22.8596 34.9994C23.0356 34.9765 23.2717 34.824 23.3431 34.6686C24.6614 31.8109 25.9578 28.9445 27.2609 26.0801C27.4979 25.5597 27.7406 25.043 28.0224 24.4358C28.3041 25.0449 28.5421 25.553 28.7743 26.0639C30.0765 28.9283 31.3748 31.7956 32.6845 34.6562C32.7483 34.7954 32.8863 34.9603 33.0205 34.9946C33.3232 35.0718 33.644 35.0728 33.9581 35.1062C35.2136 35.2415 36.4691 35.3731 37.7236 35.5132C39.04 35.66 40.3554 35.8115 41.6718 35.965C42.5199 36.0641 43.368 36.1699 44.2961 36.2824C42.2725 38.1393 40.324 39.9266 38.3766 41.7139L38.3747 41.7148ZM36.668 53.5214C36.668 53.3851 36.6766 53.3365 36.667 53.2917C36.0436 50.2576 35.4192 47.2244 34.7919 44.1913C34.73 43.8939 34.7757 43.6794 35.0308 43.4497C36.905 41.7634 38.7592 40.0553 40.6182 38.3519C41.0808 37.9277 41.5348 37.494 42.0164 37.0421C41.9117 36.9964 41.8575 36.9554 41.7984 36.9487C40.6201 36.8143 39.4417 36.6856 38.2633 36.5522C36.3615 36.3368 34.4626 36.1051 32.5579 35.9154C32.2067 35.8802 32.0772 35.721 31.9525 35.4426C30.8579 33.0081 29.7547 30.5774 28.6515 28.1467C28.4555 27.7158 28.248 27.2898 28.0157 26.7979C27.8777 27.0896 27.7815 27.2878 27.6902 27.489C26.4813 30.1494 25.2696 32.8079 24.0684 35.4722C23.9475 35.74 23.8152 35.8887 23.4906 35.9116C22.7977 35.9612 22.1104 36.0775 21.4194 36.1547C19.313 36.3901 17.2046 36.618 15.0982 36.8534C14.7536 36.8915 14.411 36.9525 14.0673 37.0021L14.0207 37.1298C14.1235 37.2042 14.2349 37.269 14.3272 37.3538C16.5517 39.3852 18.7685 41.425 21.0034 43.4449C21.2538 43.6718 21.3128 43.8825 21.25 44.1837C20.7864 46.4123 20.3267 48.6409 19.8698 50.8705C19.6928 51.7322 19.5252 52.5958 19.3415 53.5186C19.5452 53.4156 19.687 53.3498 19.8232 53.2726C22.4188 51.7961 25.0174 50.3224 27.6074 48.8363C27.9015 48.6676 28.1318 48.66 28.4288 48.8325C29.849 49.659 31.2805 50.4654 32.7093 51.2766C34.0123 52.0172 35.3173 52.755 36.6689 53.5224L36.668 53.5214ZM28.0119 19.4142C33.3698 19.4305 37.5199 15.1515 37.716 10.1251C37.9397 4.39532 33.3118 -0.0104667 28.0281 1.86766e-05C22.7025 0.0105041 18.5001 4.25424 18.323 9.34729C18.126 15.0075 22.6968 19.4543 28.0119 19.4133V19.4142ZM0 43.1942C1.58197 44.6488 3.07637 46.0434 4.59932 47.4075C4.88297 47.662 4.93342 47.8888 4.86013 48.232C4.45369 50.1489 4.06248 52.0697 3.67032 53.9894C3.65414 54.0705 3.67794 54.161 3.68555 54.2878C3.82357 54.2173 3.92256 54.1706 4.01679 54.1172C5.70822 53.1573 7.40346 52.2041 9.08633 51.2289C9.36998 51.064 9.58034 51.0726 9.85352 51.2346C10.7102 51.7427 11.5792 52.2279 12.4454 52.7188C13.3639 53.2393 14.2853 53.755 15.2591 54.3031C15.2495 54.1153 15.2591 53.9913 15.2353 53.8731C14.844 51.9686 14.4519 50.065 14.0521 48.1634C13.9912 47.8726 14.0435 47.6725 14.2853 47.4627C15.0392 46.8069 15.7626 46.1178 16.4974 45.44C17.2865 44.7118 18.0746 43.9835 18.8942 43.2257C18.7752 43.1847 18.7038 43.1456 18.6295 43.137C16.6326 42.9102 14.6365 42.6795 12.6377 42.4707C12.3645 42.4421 12.2112 42.3611 12.1037 42.1066C11.8324 41.467 11.5364 40.8369 11.2489 40.204C10.6692 38.9314 10.0877 37.6598 9.47659 36.3187C9.38426 36.5007 9.32524 36.6075 9.27479 36.7181C8.45525 38.5149 7.64143 40.3146 6.81046 42.1066C6.74383 42.2505 6.57631 42.4297 6.43734 42.4469C4.97816 42.629 3.51517 42.7786 2.05313 42.9435C1.39731 43.0169 0.74244 43.1037 0 43.1942ZM46.5758 36.3063C46.4844 36.5007 46.433 36.6103 46.3825 36.72C45.5697 38.5034 44.7625 40.2898 43.9363 42.0675C43.863 42.2258 43.6831 42.4231 43.5318 42.4421C42.0888 42.628 40.641 42.7767 39.1951 42.9416C38.5269 43.0179 37.8607 43.1037 37.1934 43.1856C37.2401 43.3572 37.3362 43.4135 37.4171 43.4869C38.8544 44.8052 40.2822 46.1349 41.7318 47.4389C41.9983 47.6782 42.0421 47.8907 41.9707 48.2225C41.5643 50.1232 41.1797 52.0287 40.7914 53.9332C40.7714 54.0314 40.7885 54.1362 40.7885 54.2888C40.9903 54.1791 41.1436 54.1 41.293 54.0152C42.9292 53.0886 44.5693 52.1697 46.1969 51.228C46.4806 51.064 46.6852 51.0745 46.9641 51.2356C48.6051 52.186 50.2585 53.1153 51.909 54.0505C52.0489 54.1296 52.1945 54.1963 52.3744 54.2868C52.3744 54.1467 52.3849 54.0819 52.3725 54.0219C51.9765 52.0868 51.5691 50.1537 51.1913 48.2148C51.1494 48.0023 51.1884 47.6734 51.3255 47.5419C52.4858 46.439 53.6794 45.3704 54.8606 44.2895C55.2366 43.9454 55.605 43.5927 56 43.2228C55.901 43.1828 55.8591 43.1551 55.8153 43.1504C53.7889 42.9197 51.7624 42.6833 49.733 42.4726C49.4551 42.444 49.3171 42.3506 49.2086 42.1028C48.784 41.1324 48.3414 40.1697 47.9026 39.206C47.4734 38.2632 47.0403 37.3224 46.5758 36.3063ZM16.5678 7.80594C15.3933 7.16156 14.1016 6.9957 12.8185 7.22829C9.20721 7.88124 7.00845 11.1365 7.76992 14.7301C8.34198 17.4296 10.5189 19.2989 13.2335 19.5544C15.4066 19.7593 17.2113 18.9395 18.6448 17.2886C18.8751 17.0236 18.8713 16.8348 18.6686 16.5555C16.7687 13.939 16.1052 11.0183 16.5669 7.80594H16.5678ZM39.5302 7.70871C39.5302 8.97268 39.6339 10.1194 39.5073 11.2394C39.2846 13.2107 38.5498 15.0142 37.3362 16.6023C37.1468 16.8501 37.1782 17.0379 37.3724 17.259C38.961 19.0749 40.9294 19.8899 43.33 19.4705C46.6148 18.8957 48.9164 15.8416 48.3481 12.3633C47.7913 8.95266 44.713 6.74786 41.3168 7.21113C40.6781 7.29787 40.0632 7.55715 39.5302 7.70966V7.70871ZM14.1759 21.1234C14.1644 21.1205 14.1235 21.1024 14.0826 21.1024C12.9803 21.11 11.9257 20.8994 10.9234 20.4304C10.8292 20.3865 10.7092 20.3446 10.614 20.3656C9.35856 20.6382 8.07452 20.826 6.85901 21.2235C3.98443 22.1624 2.33964 24.2023 2.06551 27.2173C1.91512 28.8731 1.97603 30.5479 1.97413 32.215C1.97413 32.3847 2.15879 32.6278 2.32155 32.7126C3.23913 33.1902 4.15862 33.6754 5.11332 34.07C5.91097 34.3998 6.75906 34.6086 7.64143 34.8898C7.64143 34.6591 7.64333 34.5495 7.64143 34.4389C7.59764 32.5029 7.70139 30.5793 8.21634 28.7015C8.85408 26.3785 9.98868 24.351 11.8829 22.8163C12.6224 22.2177 13.4134 21.6829 14.1739 21.1243L14.1759 21.1234ZM48.3976 34.8412C50.346 34.3836 52.1593 33.7478 53.7927 32.6697C53.9354 32.5754 54.0716 32.3399 54.0677 32.1741C54.0297 30.3524 54.0544 28.5223 53.8783 26.7121C53.6984 24.86 52.798 23.3415 51.2389 22.2539C49.8387 21.2778 48.2491 20.826 46.5986 20.5429C46.136 20.4637 45.5896 20.2483 45.2127 20.4075C44.1219 20.8689 43.0101 21.1034 41.7261 21.1129C42.0021 21.2797 42.1849 21.3903 42.3676 21.5008C43.9991 22.4893 45.3821 23.7371 46.3959 25.37C47.8208 27.6644 48.31 30.2104 48.3957 32.8623C48.4166 33.5076 48.3985 34.1548 48.3985 34.8412H48.3976Z" fill="white"/>
</g>
</g>
</g>
</g>
</g>
<defs>
<clipPath id="clip0_0_1">
<rect width="56" height="54.303" fill="white"/>
</clipPath>
</defs>
</svg>
