<svg width="13" height="13" viewBox="0 0 13 13" fill="none" xmlns="http://www.w3.org/2000/svg">
<g clip-path="url(#clip0_763_1422)">
<path d="M4.27 12.71H0V9.88H4.27C4.41 9.88 4.52 9.99 4.52 10.13C4.52 10.27 4.41 10.38 4.27 10.38H0.5V12.21H4.27C4.41 12.21 4.52 12.32 4.52 12.46C4.52 12.6 4.41 12.71 4.27 12.71Z" fill="#ffffff"/>
<path d="M12.3709 12.71H7.38086C7.24086 12.71 7.13086 12.6 7.13086 12.46C7.13086 12.32 7.24086 12.21 7.38086 12.21H11.8709V10.38H7.38086C7.24086 10.38 7.13086 10.27 7.13086 10.13C7.13086 9.99 7.24086 9.88 7.38086 9.88H12.3709V12.71Z" fill="#ffffff"/>
<path d="M2.19922 10.16L1.69922 10.11L2.68922 0.710022C2.71922 0.430022 2.95922 0.210022 3.23922 0.210022H4.35922C4.64922 0.210022 4.87922 0.420022 4.90922 0.710022L5.43922 5.79002L4.93922 5.84002L4.40922 0.760022C4.40922 0.760022 4.37922 0.710022 4.35922 0.710022H3.23922C3.23922 0.710022 3.18922 0.730022 3.18922 0.760022L2.20922 10.16H2.19922Z" fill="#ffffff"/>
<path d="M7.71094 6.03L7.21094 5.98L7.48094 3.38C7.51094 3.1 7.75094 2.88 8.03094 2.88H8.81094C9.09094 2.88 9.33094 3.09 9.36094 3.38L9.56094 5.27L9.06094 5.32L8.86094 3.43C8.86094 3.43 8.83094 3.38 8.81094 3.38H8.03094C8.03094 3.38 7.98094 3.4 7.98094 3.43L7.71094 6.02V6.03Z" fill="#ffffff"/>
<path d="M5.73008 3.37H1.83008V3.87H5.73008V3.37Z" fill="#ffffff"/>
<path d="M5.19047 1.52002H2.23047V2.02002H5.19047V1.52002Z" fill="#ffffff"/>
<path d="M8.44905 2.93C8.44905 2.93 8.36905 2.93 8.32905 2.93C8.09905 2.93 7.75905 2.85 7.57905 2.55C7.30905 2.1 7.49905 1.37 8.17905 0.32L8.38905 0L8.59905 0.32C9.27905 1.37 9.47905 2.1 9.19905 2.55C9.01905 2.85 8.66905 2.93 8.44905 2.93ZM8.38905 0.94C7.84905 1.88 7.94905 2.21 7.99905 2.3C8.09905 2.46 8.35905 2.44 8.35905 2.44H8.37905H8.39905C8.40905 2.44 8.66905 2.45 8.75905 2.3C8.80905 2.22 8.91905 1.88 8.36905 0.95L8.38905 0.94Z" fill="#ffffff"/>
<path d="M10.1703 10.08C8.88031 10.08 7.82031 9.03 7.82031 7.73C7.82031 6.43 8.87031 5.38 10.1703 5.38C11.4703 5.38 12.5203 6.43 12.5203 7.73C12.5203 9.03 11.4703 10.08 10.1703 10.08ZM10.1703 5.88C9.15031 5.88 8.32031 6.71 8.32031 7.73C8.32031 8.75 9.15031 9.58 10.1703 9.58C11.1903 9.58 12.0203 8.75 12.0203 7.73C12.0203 6.71 11.1903 5.88 10.1703 5.88Z" fill="#ffffff"/>
<path d="M10.4199 9.83002H9.91992V7.60002L11.6999 6.27002L11.9999 6.67002L10.4199 7.85002V9.83002Z" fill="#ffffff"/>
<path d="M8.63461 6.27094L8.33594 6.67194L10.0201 7.92636L10.3188 7.52537L8.63461 6.27094Z" fill="#ffffff"/>
<path d="M6.64937 12.71H4.85938V7.29001C4.85938 6.79001 5.26938 6.39001 5.75938 6.39001H8.38938V6.89001H5.75938C5.53938 6.89001 5.35938 7.07001 5.35938 7.29001V12.21H6.14937V7.68001H8.07937V8.18002H6.64937V12.71Z" fill="#ffffff"/>
</g>
<defs>
<clipPath id="clip0_763_1422">
<rect width="12.52" height="12.71" fill="white"/>
</clipPath>
</defs>
</svg>
