<svg width="16" height="16" viewBox="0 0 16 16" fill="none" xmlns="http://www.w3.org/2000/svg">
<path d="M16.0001 0V1.06489H14.9385V13.8535H11.7335V13.6815C11.7335 12.8818 11.7342 12.0818 11.7335 11.2822C11.7322 10.2811 11.0504 9.601 10.0477 9.6C9.25333 9.59933 8.45935 9.6 7.66503 9.6C7.60523 9.6 7.54544 9.6 7.46828 9.6V1.07056H6.40039V0H16.0004H16.0001ZM9.47847 2.14079V3.18697H10.7912V2.14079H9.47847ZM12.9216 3.19265V2.14647H11.6089V3.19265H12.9216ZM9.48014 4.53946V5.59098H10.7892V4.53946H9.48014ZM12.926 4.54514H11.6133V5.59132H12.926V4.54514ZM10.7925 6.94514H9.47981V7.99098H10.7925V6.94514ZM12.9243 7.99265V6.9438H11.6119V7.99265H12.9243Z" fill="#ffffff"/>
<path d="M0 4.79999H6.38931V13.8575H1.07591V5.86688H0V4.80032V4.79999ZM2.01152 6.94112V7.98729H3.32493V6.94112H2.01152ZM5.45937 6.94512H4.14664V7.9913H5.45937V6.94512ZM2.00952 9.34145V10.3893H3.32092V9.34145H2.00952ZM4.14129 10.389H5.45403V9.34145H4.14129V10.389ZM3.32159 12.7926V11.7465H2.00885V12.7926H3.32159ZM5.4577 12.7926V11.7438H4.1453V12.7926H5.4577Z" fill="#ffffff"/>
<path d="M0 14.9335H15.988V16H0V14.9335Z" fill="#ffffff"/>
<path d="M7.47299 13.8549V10.6759C7.52643 10.6726 7.5742 10.6669 7.6223 10.6669C8.438 10.6662 9.2537 10.6659 10.0694 10.6669C10.4529 10.6672 10.6663 10.8807 10.6666 11.2645C10.6676 12.1239 10.6666 12.9834 10.6666 13.8545H7.47266L7.47299 13.8549Z" fill="#ffffff"/>
</svg>
