<svg width="45" height="40" viewBox="0 0 45 40" fill="none" xmlns="http://www.w3.org/2000/svg">
<path d="M44.9988 21.2946C44.6735 21.6466 44.3434 21.9939 44.024 22.3518C42.7003 23.8379 41.2615 25.201 39.6266 26.5134C39.2367 26.1 38.8503 25.6842 38.4592 25.2743C37.5313 24.3009 36.4179 23.6465 35.106 23.3689C34.5833 23.259 34.0442 23.2307 33.4863 23.1622C35.0026 19.0372 34.5645 15.1473 32.0347 11.4146C32.3048 11.5362 32.4857 11.6142 32.6642 11.6981C37.1872 13.8279 41.0466 16.8519 44.4139 20.5421C44.5983 20.7441 44.8038 20.9249 45 21.1162V21.2934L44.9988 21.2946Z" fill="white"/>
<path d="M28.0379 26.0348C23.8109 29.0908 18.3565 28.154 15.3662 24.4933C12.4253 20.894 12.5768 15.674 15.7151 12.2566C18.8439 8.84988 24.027 8.31241 27.8042 10.9608C31.6554 13.66 33.2503 19.5438 29.9007 24.1933C30.5396 24.8276 31.1785 25.4761 31.8386 26.101C31.9196 26.1766 32.1299 26.1742 32.2555 26.1317C33.8634 25.5883 35.301 25.873 36.5108 27.0732C38.6296 29.177 40.7213 31.3068 42.8249 33.426C42.8754 33.4768 42.92 33.5335 42.9365 33.5512C41.0737 35.4282 39.225 37.2911 37.3564 39.1728C37.293 39.1126 37.1849 39.0169 37.0839 38.9153C35.0626 36.88 33.0436 34.8435 31.0223 32.8082C29.7703 31.5478 29.4191 30.0795 29.9958 28.3855C30.0346 28.271 30.0346 28.0737 29.9641 28.0005C29.3393 27.3401 28.6933 26.6975 28.0379 26.0325V26.0348ZM22.4708 22.5537C24.646 22.5643 26.4277 20.8007 26.4453 18.6189C26.4641 16.4158 24.6965 14.6062 22.5095 14.5873C20.3579 14.5684 18.5527 16.3627 18.5362 18.535C18.5198 20.7487 20.2756 22.543 22.4708 22.5537Z" fill="white"/>
<path d="M26.9935 29.7168C27.1697 30.6264 27.3541 31.5749 27.5538 32.6026C26.8796 32.7231 26.1409 32.8802 25.395 32.9842C20.2014 33.7118 15.3977 32.449 10.8383 30.0251C6.70875 27.8315 3.1735 24.876 0.09396 21.3558C0.065772 21.3228 0.0434565 21.2838 0 21.2212C3.60572 17.0631 7.82335 13.7249 12.8772 11.438C9.85523 16.3284 9.60271 21.2318 13.1145 25.8245C16.7049 30.52 21.558 31.4899 26.9947 29.718L26.9935 29.7168Z" fill="white"/>
<path d="M31.6305 1.34298C32.4856 1.63593 33.2831 1.9088 34.1252 2.19703C33.5602 3.87678 33.0059 5.52818 32.4374 7.22092C31.6 6.93624 30.7919 6.66101 29.9404 6.37042C30.5042 4.69185 31.0597 3.04045 31.6294 1.3418L31.6305 1.34298Z" fill="white"/>
<path d="M4.13666 5.50244C5.09388 7.01563 6.02056 8.47803 6.9719 9.98178C6.22727 10.4614 5.5073 10.9244 4.75092 11.4111C3.8031 9.91563 2.87055 8.44378 1.91333 6.93413C2.65679 6.45572 3.37676 5.99148 4.13548 5.50244H4.13666Z" fill="white"/>
<path d="M38.0093 9.97327C38.9594 8.47307 39.8908 7.00122 40.8457 5.49512C41.5915 5.97471 42.3126 6.43894 43.0679 6.92444C42.1177 8.42582 41.1851 9.89767 40.2326 11.4026C39.4844 10.9218 38.7657 10.4588 38.0105 9.97327H38.0093Z" fill="white"/>
<path d="M23.7977 0V5.24361H21.1997V0H23.7977Z" fill="white"/>
<path d="M12.5565 7.21617C11.9881 5.52697 11.4325 3.87557 10.8652 2.18991C11.6933 1.90523 12.4907 1.63117 13.3575 1.3335C13.9201 3.0038 14.4803 4.66228 15.0523 6.35739C14.2184 6.64444 13.4209 6.91967 12.5577 7.21617H12.5565Z" fill="white"/>
</svg>
