<svg width="20" height="20" viewBox="0 0 20 20" fill="none" xmlns="http://www.w3.org/2000/svg">
<path d="M17.4554 6.9208C17.4462 6.28996 17.3296 5.66413 17.1062 5.07413C16.7154 4.06663 15.9196 3.26996 14.9121 2.87996C14.3296 2.6608 13.7137 2.5433 13.0904 2.52996C12.2887 2.49413 12.0346 2.48413 9.99957 2.48413C7.96457 2.48413 7.70374 2.48413 6.9079 2.52996C6.2854 2.5433 5.66957 2.6608 5.08707 2.87996C4.07957 3.26996 3.2829 4.06663 2.8929 5.07413C2.67374 5.65663 2.5554 6.27246 2.54374 6.89496C2.5079 7.69746 2.49707 7.95163 2.49707 9.98663C2.49707 12.0216 2.49707 12.2816 2.54374 13.0783C2.55624 13.7016 2.67374 14.3166 2.8929 14.9008C3.28374 15.9075 4.07957 16.7041 5.0879 17.0941C5.6679 17.3208 6.28374 17.4491 6.90874 17.4691C7.71124 17.505 7.9654 17.5158 10.0004 17.5158C12.0354 17.5158 12.2962 17.5158 13.0921 17.4691C13.7146 17.4566 14.3304 17.3391 14.9137 17.12C15.9212 16.7291 16.7171 15.9325 17.1079 14.9258C17.3271 14.3425 17.4446 13.7275 17.4571 13.1033C17.4929 12.3016 17.5037 12.0475 17.5037 10.0116C17.5021 7.97663 17.5021 7.7183 17.4554 6.9208ZM9.99457 13.835C7.86624 13.835 6.14207 12.1108 6.14207 9.98246C6.14207 7.85413 7.86624 6.12996 9.99457 6.12996C12.1212 6.12996 13.8471 7.85413 13.8471 9.98246C13.8471 12.1108 12.1212 13.835 9.99457 13.835ZM14.0004 6.8858C13.5029 6.8858 13.1021 6.48413 13.1021 5.98746C13.1021 5.4908 13.5029 5.08913 14.0004 5.08913C14.4962 5.08913 14.8979 5.4908 14.8979 5.98746C14.8979 6.48413 14.4962 6.8858 14.0004 6.8858Z" fill="white"/>
<path d="M9.99469 12.485C11.3768 12.485 12.4972 11.3646 12.4972 9.98248C12.4972 8.60039 11.3768 7.47998 9.99469 7.47998C8.61259 7.47998 7.49219 8.60039 7.49219 9.98248C7.49219 11.3646 8.61259 12.485 9.99469 12.485Z" fill="white"/>
</svg>
