<svg width="18" height="18" viewBox="0 0 18 18" fill="none" xmlns="http://www.w3.org/2000/svg">
<g opacity="1">
<path d="M2.0001 4.86855C1.99786 4.27549 2.03279 3.68572 2.13861 3.10116C2.14997 3.03805 2.1763 3.0169 2.23205 2.99974C3.86032 2.50029 5.48807 1.99877 7.11617 1.49793C7.647 1.33463 8.17766 1.17115 8.70935 1.01097C8.75512 0.997271 8.81207 0.995884 8.85749 1.00975C11.0197 1.67233 13.181 2.33751 15.3429 3.00095C15.395 3.0169 15.4193 3.03701 15.4301 3.09665C15.5805 3.92877 15.5936 4.76714 15.5488 5.60845C15.4917 6.68241 15.3107 7.73504 14.9915 8.76116C14.206 11.2856 12.7441 13.3226 10.6253 14.8826C10.0599 15.2989 9.46179 15.6622 8.84098 15.9876C8.8119 16.0029 8.76165 16.0046 8.73292 15.9895C7.61517 15.4053 6.58449 14.6956 5.67442 13.8153C4.0009 12.1964 2.90758 10.242 2.36574 7.97307C2.10971 6.90084 2.0001 5.9231 2.0001 4.86855ZM14.8081 4.77823C14.7926 4.55633 14.7635 4.14478 14.7355 3.73288C14.7308 3.66405 14.7078 3.62401 14.6324 3.60095C12.7435 3.02297 10.8552 2.44257 8.96796 1.85869C8.84218 1.81969 8.73103 1.81882 8.60421 1.858C6.71199 2.4443 4.81822 3.02592 2.92427 3.60702C2.87007 3.62366 2.84392 3.64516 2.84048 3.70462C2.8169 4.12519 2.77079 4.54576 2.7689 4.96633C2.76459 5.88721 2.86835 6.79821 3.07105 7.69708C3.37302 9.03524 3.88475 10.2841 4.64185 11.4272C5.68905 13.0085 7.07866 14.2052 8.725 15.1136C8.77215 15.1396 8.80605 15.1368 8.84992 15.1104C9.09323 14.9639 9.34238 14.8266 9.5819 14.6743C11.1746 13.6605 12.4628 12.3502 13.3777 10.683C14.3528 8.90608 14.7843 6.98943 14.8081 4.77823Z" fill="white"/>
<path d="M8.78516 2.42859C9.03813 2.50822 9.28685 2.58681 9.53573 2.66504C11.0176 3.1304 12.4994 3.59558 13.9814 4.06042C14.0339 4.07691 14.0721 4.09041 14.0806 4.16566C14.1542 4.80941 14.1576 5.45369 14.1138 6.09955C14.0588 6.90941 13.9244 7.70436 13.6985 8.48177C13.012 10.8442 11.6503 12.6884 9.65396 14.0401C9.39127 14.218 9.11547 14.3753 8.84563 14.542C8.82911 14.5521 8.81071 14.5592 8.7855 14.5714V2.42859H8.78516Z" fill="white"/>
</g>
</svg>
