<svg width="45" height="42" viewBox="0 0 45 42" fill="none" xmlns="http://www.w3.org/2000/svg">
<path d="M10.8509 26.2866C12.8136 26.3735 14.7891 26.3407 16.7319 26.5857C18.3157 26.7851 19.5107 27.8092 20.3368 29.1822C20.6445 29.6936 21.0333 29.8759 21.6016 29.8744C23.805 29.8673 26.0084 29.8858 28.2118 29.8901C28.8542 29.8901 29.4467 30.0368 29.9423 30.4641C30.6901 31.1093 30.7143 32.0209 29.995 32.6889C29.4695 33.1774 28.857 33.4423 28.1178 33.4395C24.9188 33.4267 21.7212 33.4338 18.5222 33.4352C18.3627 33.4352 18.2018 33.4267 18.0423 33.4438C17.5494 33.4979 17.2333 33.8255 17.229 34.2713C17.2247 34.7385 17.5623 35.096 18.0764 35.1145C18.733 35.1373 19.3911 35.1259 20.0491 35.1259C22.892 35.1273 25.7349 35.1458 28.5779 35.113C29.0493 35.1073 29.5734 34.9706 29.9808 34.7342C33.9774 32.4211 37.9484 30.0639 41.945 27.7508C42.3509 27.5158 42.8807 27.3677 43.3451 27.3876C44.184 27.4246 44.805 28.0912 44.9673 28.9187C45.1126 29.6637 44.7651 30.4413 44.0458 30.8629C42.8366 31.5736 41.6003 32.2388 40.3953 32.9581C37.3758 34.7598 34.3748 36.5915 31.351 38.3861C30.4052 38.9473 29.4054 39.4159 28.444 39.95C26.6023 40.9726 24.6311 41.088 22.5972 40.8516C18.659 40.3929 14.8931 39.2464 11.16 37.9731C11.0005 37.9189 10.7982 37.6711 10.7982 37.513C10.7797 33.8625 10.7854 30.212 10.7883 26.5615C10.7883 26.5273 10.8039 26.4931 10.8538 26.2895L10.8509 26.2866Z" fill="white"/>
<path d="M0.00189907 32.2387C0.00189907 29.9243 0.000474769 27.6083 0.00189907 25.2938C0.00332338 23.6787 0.943366 22.7301 2.54286 22.7272C3.8931 22.7244 5.24335 22.7244 6.59359 22.7272C8.16317 22.7315 9.11176 23.6687 9.11746 25.2554C9.12743 28.2649 9.12031 31.2745 9.12031 34.2841C9.12031 35.9049 9.126 37.5243 9.11888 39.1452C9.11176 40.823 8.18026 41.7417 6.49816 41.7446C5.16501 41.7474 3.83328 41.7503 2.50013 41.7446C0.969003 41.736 0.00617199 40.7703 0.00189907 39.2378C-0.00237384 36.9048 0.00189907 34.5718 0.00189907 32.2402V32.2387ZM3.73643 25.9533C3.73643 26.2367 3.71364 26.523 3.74213 26.8036C3.7877 27.2722 4.06402 27.5571 4.53404 27.5756C5.00406 27.5927 5.33593 27.3334 5.37153 26.8634C5.41711 26.2652 5.41426 25.6585 5.36726 25.0617C5.33308 24.6187 4.92145 24.3082 4.51553 24.3595C4.0569 24.4165 3.77631 24.6842 3.73928 25.1585C3.71934 25.4234 3.73501 25.6898 3.73643 25.9561V25.9533Z" fill="white"/>
<path d="M27.0364 24.3996C25.9981 23.2516 24.9597 22.0581 23.873 20.9129C21.3149 18.2181 18.7113 15.5646 16.1647 12.857C14.1322 10.6978 13.5055 8.1255 14.3914 5.3011C15.2645 2.51658 17.2201 0.771804 20.0772 0.175019C22.6524 -0.363368 24.9227 0.353058 26.8498 2.14911C26.9922 2.28299 27.1233 2.4297 27.2614 2.56785C27.7699 3.07776 28.1559 3.11051 28.69 2.62483C29.7098 1.6976 30.8621 1.03815 32.2109 0.726226C35.5138 -0.0400509 38.9151 1.46829 40.5502 4.43797C42.181 7.39768 41.6725 11.1393 39.2313 13.4795C37.6788 14.9664 36.0237 16.3452 34.42 17.7794C31.9702 19.9715 29.5246 22.1692 27.0364 24.401V24.3996Z" fill="white"/>
</svg>
