<svg width="40" height="40" viewBox="0 0 40 40" fill="none" xmlns="http://www.w3.org/2000/svg">
<rect width="40" height="40" rx="8" fill="url(#paint0_linear_446_825)"/>
<path d="M11.4947 14.1778C12.9594 14.1778 14.1468 12.9904 14.1468 11.5257C14.1468 10.0609 12.9594 8.87354 11.4947 8.87354C10.0299 8.87354 8.84253 10.0609 8.84253 11.5257C8.84253 12.9904 10.0299 14.1778 11.4947 14.1778Z" fill="white"/>
<path d="M16.6509 16.1874V30.9013H21.2194V23.6249C21.2194 21.7049 21.5806 19.8455 23.9612 19.8455C26.3091 19.8455 26.3382 22.0407 26.3382 23.7462V30.9025H30.9091V22.8334C30.9091 18.8698 30.0558 15.8237 25.423 15.8237C23.1988 15.8237 21.7079 17.0443 21.0982 18.1995H21.0364V16.1874H16.6509ZM9.20605 16.1874H13.7818V30.9013H9.20605V16.1874Z" fill="white"/>
<defs>
<linearGradient id="paint0_linear_446_825" x1="0" y1="40" x2="39.0909" y2="0.909082" gradientUnits="userSpaceOnUse">
<stop stop-color="#6366F1"/>
<stop offset="0.5" stop-color="#8B5CF6"/>
<stop offset="1" stop-color="#D946EF"/>
</linearGradient>
</defs>
</svg>
