<svg width="16" height="14" viewBox="0 0 16 14" fill="none" xmlns="http://www.w3.org/2000/svg">
<path d="M3.63418 8.18842L2.76502 11.9521C2.71135 12.1848 2.80468 12.4269 3.00185 12.5628C3.1016 12.6317 3.2171 12.6667 3.33318 12.6667C3.44577 12.6667 3.55893 12.634 3.65693 12.5687L6.83318 10.4512L10.0094 12.5687C10.2124 12.704 10.479 12.6987 10.6773 12.5547C10.8745 12.4106 10.9614 12.158 10.8943 11.9235L9.82743 8.19017L12.4734 5.809C12.6467 5.65267 12.7103 5.40883 12.6356 5.18833C12.5603 4.96783 12.3614 4.81267 12.1293 4.794L8.80368 4.52917L7.3646 1.34358C7.27068 1.13417 7.06243 1 6.83318 1C6.60393 1 6.39568 1.13417 6.30177 1.34358L4.86268 4.52917L1.5371 4.79342C1.30843 4.8115 1.11185 4.96142 1.03485 5.17667C0.956683 5.39192 1.01268 5.63283 1.17602 5.79267L3.63418 8.18842ZM5.29843 5.66492C5.51018 5.648 5.69685 5.51733 5.78377 5.32308L6.83318 3.00083L7.8826 5.32308C7.96952 5.51733 8.15618 5.648 8.36793 5.66492L10.6849 5.84867L8.77685 7.566C8.61118 7.71533 8.54527 7.94517 8.60593 8.15983L9.33685 10.7177L7.15752 9.26467C6.96152 9.13342 6.7066 9.13342 6.5106 9.26467L4.23327 10.7831L4.84577 8.13125C4.89127 7.93292 4.8306 7.72467 4.68477 7.58292L2.9126 5.85508L5.29843 5.66492Z" fill="white" fill-opacity="0.5"/>
</svg>
