<svg width="20" height="20" viewBox="0 0 20 20" fill="none" xmlns="http://www.w3.org/2000/svg">
<path d="M17.9944 6.00247C17.8028 5.28747 17.2403 4.7233 16.5261 4.5308C15.2211 4.17247 10.0003 4.16663 10.0003 4.16663C10.0003 4.16663 4.78027 4.1608 3.47444 4.5033C2.77444 4.69413 2.19611 5.2708 2.00277 5.98497C1.65861 7.28997 1.65527 9.99663 1.65527 9.99663C1.65527 9.99663 1.65194 12.7166 1.99361 14.0083C2.18527 14.7225 2.74777 15.2866 3.46277 15.4791C4.78111 15.8375 9.98777 15.8433 9.98777 15.8433C9.98777 15.8433 15.2086 15.8491 16.5136 15.5075C17.2269 15.3158 17.7919 14.7525 17.9861 14.0383C18.3311 12.7341 18.3336 10.0283 18.3336 10.0283C18.3336 10.0283 18.3503 7.30747 17.9944 6.00247ZM8.33028 12.5041L8.33444 7.50413L12.6736 10.0083L8.33028 12.5041Z" fill="white"/>
</svg>
