<svg width="20" height="20" viewBox="0 0 20 20" fill="none" xmlns="http://www.w3.org/2000/svg">
<path d="M13.8045 18.3325C13.8087 18.3325 13.8237 18.3325 13.8279 18.3325C14.2679 18.3325 14.6837 18.1591 14.9987 17.8441L17.2587 15.5841C17.5845 15.2583 17.5845 14.7316 17.2587 14.4058L13.9254 11.0725C13.5995 10.7466 13.0729 10.7466 12.747 11.0725L11.4187 12.4008C10.8029 12.2175 9.6537 11.8008 8.92536 11.0725C8.19703 10.3441 7.78036 9.19496 7.59703 8.57913L8.92536 7.25079C9.2512 6.92496 9.2512 6.39829 8.92536 6.07246L5.59203 2.73913C5.27953 2.42663 4.7262 2.42663 4.4137 2.73913L2.15453 4.99913C1.83786 5.31579 1.65953 5.75079 1.6662 6.19496C1.68536 7.38163 1.99953 11.5033 5.24786 14.7516C8.4962 18 12.6179 18.3133 13.8045 18.3325ZM5.0037 4.50663L7.1587 6.66163L6.0812 7.73913C5.88203 7.93746 5.79703 8.22413 5.85536 8.49913C5.87536 8.59496 6.36453 10.8675 7.74786 12.2508C9.1312 13.6341 11.4037 14.1233 11.4995 14.1433C11.777 14.2016 12.0612 14.1166 12.2595 13.9175L13.337 12.84L15.492 14.995L13.8204 16.6658C12.7804 16.6483 9.22203 16.3691 6.4262 13.5725C3.6212 10.7675 3.34953 7.19663 3.33286 6.17746L5.0037 4.50663ZM16.6654 9.16579H18.332C18.332 4.89079 15.1045 1.66663 10.8237 1.66663V3.33329C14.2087 3.33329 16.6654 5.78579 16.6654 9.16579Z" fill="#6366F1"/>
<path d="M10.832 6.66667C12.5845 6.66667 13.332 7.41417 13.332 9.16667H14.9987C14.9987 6.47917 13.5195 5 10.832 5V6.66667Z" fill="#6366F1"/>
</svg>
