<svg width="56" height="56" viewBox="0 0 56 56" fill="none" xmlns="http://www.w3.org/2000/svg">
<g opacity="0.4" clip-path="url(#clip0_125_1560)">
<path d="M45.1355 53.0404C45.6156 53.0404 46.0894 53.2231 46.4498 53.5712C48.7537 55.7959 52.1144 56.5367 55.102 55.6095C53.1792 51.604 52.9128 47.015 54.4028 42.7661C56.2519 37.4796 56.7153 32.181 54.6109 26.8668C52.762 22.1984 49.1942 18.3199 44.6789 16.1082C44.9567 17.5891 45.0967 19.0981 45.0967 20.6229C45.0968 27.0955 42.6079 33.1832 38.0888 37.7646C33.5691 42.3466 27.5106 44.9231 21.0294 45.0194C19.8253 45.0382 18.6266 44.9674 17.4414 44.8112C21.0034 51.0548 27.7211 55.1212 35.1032 55.2307C38.3325 55.2806 41.4331 54.604 44.3207 53.2251C44.5808 53.1007 44.8592 53.0404 45.1355 53.0404Z" fill="white"/>
<path d="M21.0828 0.00411463C9.58535 -0.224182 0.0277851 9.07708 6.23434e-05 20.5721C-0.00672974 23.3805 0.541488 26.1034 1.62961 28.6656C1.64541 28.7029 1.6601 28.7406 1.67341 28.7788C3.16337 33.0278 2.89709 37.6166 0.974241 41.6222C3.96206 42.549 7.32234 41.8087 9.62638 39.5838C10.194 39.0354 11.0433 38.8974 11.7555 39.2378C14.6427 40.6167 17.7437 41.2954 20.9729 41.2435C32.3804 41.0742 41.3161 32.0164 41.316 20.6228C41.3161 9.47782 32.2394 0.228392 21.0828 0.00411463ZM9.63885 23.7028C7.98699 23.7028 6.64784 22.3659 6.64784 20.7168C6.64784 19.0677 7.98699 17.7307 9.63885 17.7307C11.2907 17.7307 12.6299 19.0677 12.6299 20.7168C12.6297 22.3659 11.2907 23.7028 9.63885 23.7028ZM20.6581 23.7028C19.0062 23.7028 17.6671 22.3659 17.6671 20.7168C17.6671 19.0677 19.0062 17.7307 20.6581 17.7307C22.31 17.7307 23.6491 19.0677 23.6491 20.7168C23.6491 22.3659 22.31 23.7028 20.6581 23.7028ZM31.6775 23.7028C30.0256 23.7028 28.6865 22.3659 28.6865 20.7168C28.6865 19.0677 30.0256 17.7307 31.6775 17.7307C33.3293 17.7307 34.6685 19.0677 34.6685 20.7168C34.6685 22.3659 33.3293 23.7028 31.6775 23.7028Z" fill="white"/>
</g>
<defs>
<clipPath id="clip0_125_1560">
<rect width="56" height="56" fill="white"/>
</clipPath>
</defs>
</svg>
