<svg width="20" height="21" viewBox="0 0 20 21" fill="none" xmlns="http://www.w3.org/2000/svg">
<path d="M20 2.74318C17.3099 2.30777 15.3119 2.82234 14.0058 4.2869C12.6998 5.75146 12.0468 7.90871 12.0468 10.7587V18.8335H20V10.7587H15.9064C15.692 9.33368 15.8869 8.17589 16.4912 7.28528C17.115 6.39467 18.1287 6.00874 19.5322 6.12749L20 2.74318ZM7.95322 2.74318C5.26316 2.30777 3.26511 2.82234 1.95906 4.2869C0.653022 5.75146 0 7.90871 0 10.7587V18.8335H7.95322V10.7587H3.85965C3.64522 9.33368 3.84016 8.17589 4.44444 7.28528C5.06823 6.39467 6.08187 6.00874 7.48538 6.12749L7.95322 2.74318Z" fill="white"/>
</svg>
