<svg width="45" height="46" viewBox="0 0 45 46" fill="none" xmlns="http://www.w3.org/2000/svg">
<path d="M40.2418 15.3283C43.7015 22.5906 42.7509 33.5632 34.2276 40.4021C25.8004 47.1644 13.8524 46.4891 6.19146 38.8983C-1.31627 31.4593 -2.09289 19.3542 4.39147 11.0322C11.133 2.38296 22.1822 1.12712 29.7458 4.75956C29.3627 5.10112 29.0211 5.418 28.664 5.718C28.4004 5.93877 28.3276 6.16345 28.4121 6.52188C28.7146 7.7998 28.9588 9.0907 29.2536 10.3699C29.3185 10.653 29.2523 10.8206 29.0562 11.0037C28.6653 11.3686 28.338 11.9725 27.8978 12.0647C27.4796 12.153 26.9497 11.7179 26.4718 11.505C18.5212 7.96473 9.20702 12.979 7.733 21.5932C6.43301 29.1853 11.5304 36.2294 19.1537 37.3775C26.3251 38.458 33.2341 33.4009 34.399 26.2256C34.8977 23.1568 34.4354 20.249 32.9666 17.5088C32.8276 17.2491 32.8172 17.0776 33.0562 16.888C33.2328 16.7478 33.4094 16.5906 33.5354 16.4062C33.9743 15.7712 34.5172 15.6803 35.2458 15.8854C36.3341 16.1919 37.4561 16.3789 38.5587 16.6335C38.8431 16.6984 39.047 16.6517 39.2405 16.4244C39.5535 16.0556 39.8925 15.7088 40.2431 15.3283H40.2418Z" fill="white"/>
<path d="M31.0209 18.8984C33.1638 22.8165 32.7287 28.9814 27.995 32.7567C23.5548 36.2982 17.0613 35.8918 13.0808 31.8178C9.04709 27.6892 8.76657 21.1607 12.425 16.7828C16.3704 12.0608 22.508 11.9439 26.1028 13.9737C25.2184 14.8504 24.3483 15.714 23.4768 16.5763C23.3846 16.6672 23.2807 16.7503 23.2015 16.8516C22.573 17.6477 21.8496 17.9724 20.747 17.9711C17.6808 17.9659 15.1328 20.6581 15.047 23.7503C14.9613 26.8801 17.3184 29.61 20.3704 29.9139C24.2677 30.3022 27.382 27.1944 27.0275 23.2841C27.0119 23.1178 27.0755 22.8893 27.1885 22.7737C28.443 21.4841 29.7158 20.2114 31.0183 18.8971L31.0209 18.8984Z" fill="white"/>
<path d="M21.0587 20.2021C21.4964 20.3034 21.9509 20.3644 22.3678 20.5216C22.6535 20.6293 22.7989 20.5592 22.9898 20.3683C25.8639 17.4865 28.7469 14.6138 31.6132 11.7242C31.7404 11.5957 31.8196 11.3242 31.7846 11.1463C31.5287 9.82554 31.2482 8.50996 30.9495 7.19829C30.8885 6.92816 30.9197 6.75413 31.1197 6.55543C33.2222 4.46195 35.3118 2.35417 37.4209 0.267173C37.5806 0.108733 37.9001 -0.0458111 38.0741 0.01263C38.2521 0.0723698 38.4079 0.380159 38.4599 0.606132C38.804 2.10612 39.1261 3.6126 39.4352 5.12038C39.4936 5.40609 39.6157 5.51259 39.8988 5.57103C41.3884 5.87622 42.8741 6.1957 44.3559 6.53985C44.5962 6.59569 44.926 6.75803 44.9884 6.94504C45.0481 7.12296 44.865 7.45413 44.6949 7.62556C42.6455 9.70346 40.5754 11.7619 38.5222 13.8359C38.2923 14.0684 38.0884 14.1437 37.7586 14.0671C36.4508 13.7645 35.1365 13.4865 33.8196 13.2268C33.6534 13.1943 33.4002 13.2619 33.282 13.3801C30.382 16.2593 27.4989 19.154 24.5976 22.0319C24.3522 22.2748 24.4314 22.454 24.5132 22.7111C24.995 24.2111 24.7002 25.5553 23.5483 26.6267C22.3963 27.6981 21.0223 27.928 19.5834 27.2955C18.1418 26.6618 17.4042 25.4839 17.3886 23.9124C17.3691 21.906 19.047 20.2579 21.0574 20.2008L21.0587 20.2021Z" fill="white"/>
</svg>
