<svg width="124" height="16" viewBox="0 0 124 16" fill="none" xmlns="http://www.w3.org/2000/svg">
<mask id="mask0_61_2049" style="mask-type:luminance" maskUnits="userSpaceOnUse" x="0" y="0" width="124" height="16">
<path d="M124 0H0V15.0677H124V0Z" fill="white"/>
</mask>
<g mask="url(#mask0_61_2049)">
<path d="M103.642 15.0678C99.6393 15.0678 97.229 12.7431 97.229 8.48106V0.215332H99.9406V8.39496C99.9406 11.4085 101.318 12.7 103.642 12.7C106.009 12.7 107.344 11.4085 107.344 8.39496V0.215332H110.012V8.48106C110.012 12.7431 107.602 15.0678 103.642 15.0678Z" fill="white"/>
<path d="M118.061 15.0675C115.78 15.0675 113.499 14.3787 112.293 13.3024L113.24 11.1929C114.618 12.2262 116.339 12.7858 118.061 12.7858C120.342 12.7858 121.289 11.9679 121.289 10.8916C121.289 7.74889 112.595 9.81532 112.595 4.34789C112.638 2.02315 114.489 -0.000229605 118.534 -0.000229605C120.256 -0.0432803 121.935 0.430277 123.398 1.29129L122.537 3.40077C121.332 2.66891 119.912 2.28146 118.491 2.2384C116.21 2.2384 115.306 3.09942 115.306 4.21874C115.306 7.31838 124.001 5.295 124.001 10.6763C124.001 13.0441 122.107 15.0675 118.061 15.0675Z" fill="white"/>
<path d="M69.769 14.8525L70.9742 12.0542L72.4806 8.56708L74.977 2.79829L77.8176 9.42809L78.7645 11.6237L80.1849 14.8955H83.1116L76.8707 1.24847C76.6986 0.904064 76.4403 0.559658 76.096 0.344405C75.7517 0.129152 75.3643 0 74.9339 0C74.5035 0 74.1161 0.129152 73.7718 0.344405C73.4275 0.559658 73.1693 0.861013 72.9971 1.24847L66.8423 14.8525H69.769Z" fill="white"/>
<path d="M81.9922 0.215332L83.0252 2.54007H86.9849V14.8956H89.6965V2.54007H94.56V0.215332H81.9922Z" fill="white"/>
<path d="M48.1194 1.3777C47.1725 0.602788 45.7952 0.215332 44.0305 0.215332H36.7997L34.2173 14.8526H36.8428L39.0378 2.54007H43.7293C44.547 2.49702 45.3218 2.71227 46.0104 3.14278C46.2687 3.35803 46.4839 3.61633 46.656 3.91769C46.7851 4.21904 46.8712 4.56345 46.8282 4.90785C46.8712 5.38141 46.7851 5.89802 46.613 6.32852C46.4408 6.75903 46.1395 7.18954 45.7522 7.49089C44.8483 8.13665 43.7723 8.43801 42.6963 8.3519L42.2228 10.6766C43.6001 10.6766 44.9774 10.4614 46.3117 9.94478C47.3016 9.51427 48.1194 8.78241 48.722 7.87835C49.3245 6.88818 49.6258 5.81192 49.5828 4.64955C49.6258 4.04684 49.4967 3.40108 49.2385 2.84142C48.9802 2.28176 48.5928 1.76516 48.1194 1.3777Z" fill="white"/>
<path d="M24.059 1.3777C23.1121 0.602788 21.7348 0.215332 19.9701 0.215332H12.7393L12.5672 1.24855L10.5442 12.5278H5.85282C5.03505 12.5709 4.26032 12.3556 3.57167 11.9251C3.31342 11.7099 3.09822 11.4516 2.92606 11.1502C2.79694 10.8488 2.71085 10.5044 2.75389 10.16C2.71085 9.68647 2.79694 9.16987 3.01214 8.73936C3.1843 8.30885 3.48558 7.87835 3.87295 7.57699C4.60464 6.97428 5.59457 6.71598 6.92883 6.71598L7.40228 4.4343C6.02498 4.4343 4.64768 4.64955 3.31342 5.16616C2.32349 5.59666 1.50572 6.32852 0.903148 7.23259C0.30058 8.1797 -0.000704713 9.29902 0.0423359 10.4614C-0.000704713 11.0641 0.128417 11.7099 0.386661 12.2695C0.644904 12.8292 1.03227 13.3458 1.50572 13.7332C2.45261 14.5081 3.82991 14.8956 5.59457 14.8956H12.8254L12.9976 13.8624L15.0205 2.58312H19.7119C20.5297 2.54007 21.3044 2.75532 21.993 3.18583C22.2513 3.40108 22.5095 3.65938 22.6387 3.96074C22.7678 4.26209 22.8539 4.6065 22.8108 4.9509C22.8539 5.42446 22.7678 5.94107 22.5526 6.37157C22.3804 6.80208 22.0791 7.23259 21.6918 7.53394C20.9601 8.13665 19.9271 8.39496 18.6359 8.39496L18.1624 10.7197C19.5397 10.7197 20.917 10.5044 22.2513 9.98783C23.2412 9.55732 24.059 8.82546 24.6616 7.9214C25.2641 6.97428 25.5654 5.85497 25.5224 4.6926C25.5654 4.08989 25.4363 3.44413 25.1781 2.88447C24.9198 2.28176 24.5324 1.76516 24.059 1.3777Z" fill="url(#paint0_linear_61_2049)"/>
<path d="M61.3325 14.8524H64.2162L62.0642 10.0738C62.2363 10.0307 62.4085 9.94462 62.6237 9.85852C63.2693 9.55716 63.8719 9.12665 64.3884 8.61005C64.6466 8.39479 64.8618 8.09344 65.034 7.83514C65.6366 6.88802 65.9378 5.7687 65.8948 4.60634C65.9378 4.00363 65.8087 3.35787 65.5505 2.79821C65.2922 2.23855 64.9049 1.72194 64.4314 1.33449C63.4845 0.559575 62.1072 0.172119 60.3426 0.172119H53.1117L50.5293 14.8093H53.1978L55.3929 2.49685H60.0843C60.9021 2.4538 61.6768 2.66906 62.3655 3.09956C62.6237 3.31482 62.8389 3.57312 63.0111 3.87448C63.1402 4.17583 63.2263 4.52024 63.1832 4.86464C63.2263 5.3382 63.1402 5.85481 62.968 6.28531C62.7959 6.71582 62.4946 7.14632 62.1072 7.44768C61.3755 8.05039 60.3856 8.30869 59.0513 8.30869H58.6209L61.3325 14.8524Z" fill="white"/>
</g>
<defs>
<linearGradient id="paint0_linear_61_2049" x1="2.21498" y1="14.3251" x2="22.9549" y2="1.0067" gradientUnits="userSpaceOnUse">
<stop offset="0.0137672" stop-color="#02A3FE"/>
<stop offset="0.5677" stop-color="#6876EE"/>
<stop offset="0.981" stop-color="#6876EE"/>
</linearGradient>
</defs>
</svg>
