<svg width="116" height="31" viewBox="0 0 116 31" fill="none" xmlns="http://www.w3.org/2000/svg">
<g opacity="0.4">
<path d="M31.4913 0.404175H36.4018V30.7861H31.4913V0.404175Z" fill="white"/>
<path d="M53.4817 21.158C53.4817 25.8651 49.6387 26.293 48.3577 26.293C45.3688 26.293 44.9418 23.5116 44.9418 22.0139V10.2462H40.0314V21.7999C40.0314 24.5813 40.8854 27.1488 42.5933 28.6465C44.0878 30.1442 46.0093 30.7861 48.3577 30.7861C50.0657 30.7861 52.2007 30.3582 53.4817 29.0744V30.7861H58.3921V10.2462H53.4817V21.158Z" fill="white"/>
<path d="M67.999 2.75769H63.0886V10.2462H59.4591V14.9532H63.0886V30.7861H67.999V14.9532H71.6284V10.2462H67.999V2.75769Z" fill="white"/>
<path d="M87.0003 24.5813C85.9329 25.4371 84.4384 26.079 82.9439 26.079C79.5279 26.079 77.1795 23.5115 77.1795 20.0882C77.1795 16.6649 79.5279 14.3113 82.9439 14.3113C84.4384 14.3113 85.9329 14.7392 87.0003 15.809L87.6408 16.4509L91.0568 13.2415L90.2028 12.5997C88.2813 10.888 85.7194 9.81824 82.9439 9.81824C76.966 9.81824 72.4825 14.3113 72.4825 20.3021C72.4825 26.2929 76.966 30.786 82.9439 30.786C85.7194 30.786 88.2813 29.7162 90.2028 28.0046L91.0568 27.3627L87.6408 23.9394L87.0003 24.5813Z" fill="white"/>
<path d="M108.35 11.9579C106.855 10.4602 105.361 9.81829 103.013 9.81829C101.305 9.81829 99.5966 10.2462 98.3156 11.5299V0.404175H93.4052V30.7861H98.3156V19.4464C98.3156 14.7393 101.518 14.3114 102.799 14.3114C105.788 14.3114 105.574 17.0928 105.574 18.5905V30.5721H110.485V18.8045C110.485 16.023 109.844 13.4556 108.35 11.9579Z" fill="white"/>
<path d="M82.7296 23.7255C84.6161 23.7255 86.1455 22.1929 86.1455 20.3022C86.1455 18.4116 84.6161 16.8789 82.7296 16.8789C80.843 16.8789 79.3136 18.4116 79.3136 20.3022C79.3136 22.1929 80.843 23.7255 82.7296 23.7255Z" fill="white"/>
<path d="M24.6592 23.2976C22.9512 25.0092 20.3892 26.079 17.6138 26.079C12.2763 26.079 8.43338 21.7999 8.43338 16.023C8.43338 10.2462 12.2763 5.96705 17.8272 5.96705C20.3892 5.96705 22.9512 7.03683 24.8726 8.96244L25.5131 9.60431L28.7156 6.39496L28.0751 5.75309C25.2996 2.97165 21.6702 1.47395 17.8272 1.47395C9.71436 1.25999 3.73645 7.6787 3.73645 16.023C3.73645 24.3674 9.71436 30.7861 17.6138 30.7861C21.4567 30.7861 25.2996 29.2884 27.8616 26.5069L28.5021 25.8651L25.2996 22.6557L24.6592 23.2976Z" fill="white"/>
</g>
</svg>
