<svg width="119" height="31" viewBox="0 0 119 31" fill="none" xmlns="http://www.w3.org/2000/svg">
<path d="M2.94141 28.5389H28.5914V2.88892H2.94141V28.5389ZM23.6544 13.2459H18.2344V7.82592H23.6544V13.2459ZM7.87741 7.82592H13.3004V18.1819H23.6544V23.6019H7.87741V7.82592ZM45.2944 2.88892C42.7578 2.88892 40.2782 3.6411 38.1692 5.05033C36.0601 6.45956 34.4163 8.46255 33.4456 10.806C32.4749 13.1495 32.221 15.7281 32.7158 18.2159C33.2107 20.7037 34.4321 22.9889 36.2257 24.7825C38.0193 26.5762 40.3045 27.7976 42.7923 28.2925C45.2802 28.7873 47.8588 28.5334 50.2023 27.5627C52.5458 26.592 54.5487 24.9482 55.958 22.8391C57.3672 20.73 58.1194 18.2504 58.1194 15.7139C58.1154 12.3137 56.7629 9.05396 54.3586 6.64967C51.9543 4.24537 48.6946 2.89289 45.2944 2.88892ZM45.2944 23.6019C43.7343 23.6019 42.2092 23.1393 40.912 22.2725C39.6149 21.4058 38.6038 20.1739 38.0068 18.7325C37.4098 17.2912 37.2536 15.7052 37.5579 14.175C37.8623 12.6449 38.6136 11.2394 39.7167 10.1363C40.8199 9.03311 42.2254 8.28185 43.7555 7.97749C45.2856 7.67313 46.8716 7.82934 48.313 8.42636C49.7543 9.02338 50.9863 10.0344 51.853 11.3316C52.7198 12.6287 53.1824 14.1538 53.1824 15.7139C53.1792 17.805 52.3471 19.8095 50.8685 21.2881C49.3899 22.7667 47.3854 23.5987 45.2944 23.6019ZM104.013 2.88892C101.476 2.88873 98.9971 3.64073 96.8879 5.04984C94.7787 6.45895 93.1348 8.46187 92.1639 10.8053C91.1931 13.1487 90.9389 15.7275 91.4337 18.2153C91.9284 20.7032 93.1498 22.9885 94.9434 24.7822C96.7369 26.5759 99.0221 27.7975 101.51 28.2924C103.997 28.7873 106.576 28.5334 108.92 27.5628C111.263 26.5921 113.266 24.9483 114.675 22.8392C116.085 20.7301 116.837 18.2505 116.837 15.7139C116.833 12.3139 115.481 9.05428 113.077 6.65002C110.673 4.24575 107.413 2.89316 104.013 2.88892ZM104.013 23.6019C102.453 23.6021 100.928 23.1396 99.6308 22.273C98.3335 21.4064 97.3223 20.1745 96.7251 18.7332C96.1279 17.2919 95.9716 15.7058 96.2758 14.1756C96.5801 12.6455 97.3313 11.2399 98.4344 10.1366C99.5375 9.03336 100.943 8.282 102.473 7.97756C104.003 7.67312 105.589 7.82927 107.03 8.42627C108.472 9.02326 109.704 10.0343 110.571 11.3315C111.437 12.6287 111.9 14.1538 111.9 15.7139C111.897 17.8048 111.065 19.8091 109.586 21.2877C108.108 22.7663 106.104 23.5985 104.013 23.6019ZM74.6534 2.88892C72.1168 2.88892 69.6372 3.6411 67.5282 5.05033C65.4191 6.45956 63.7753 8.46255 62.8046 10.806C61.8339 13.1495 61.58 15.7281 62.0748 18.2159C62.5697 20.7037 63.7911 22.9889 65.5847 24.7825C67.3783 26.5762 69.6635 27.7976 72.1513 28.2925C74.6391 28.7873 77.2178 28.5334 79.5613 27.5627C81.9048 26.592 83.9077 24.9482 85.317 22.8391C86.7262 20.73 87.4784 18.2504 87.4784 15.7139C87.4744 12.3137 86.1219 9.05396 83.7176 6.64967C81.3133 4.24537 78.0536 2.89289 74.6534 2.88892ZM74.6534 23.6019C73.1998 23.6026 71.7744 23.2017 70.5343 22.4434C69.2943 21.6851 68.2878 20.599 67.6261 19.3048C66.9645 18.0106 66.6732 16.5587 66.7846 15.1095C66.896 13.6602 67.4056 12.2699 68.2573 11.092C69.109 9.91418 70.2696 8.99453 71.6109 8.43463C72.9523 7.87472 74.4223 7.69634 75.8586 7.91916C77.295 8.14199 78.6418 8.75735 79.7505 9.69734C80.8592 10.6373 81.6866 11.8654 82.1414 13.2459H74.6534V18.1819H82.1414C81.6205 19.7572 80.6169 21.1286 79.2728 22.1014C77.9288 23.0743 76.3126 23.5992 74.6534 23.6019Z" fill="white"/>
</svg>
