<svg width="152" height="20" viewBox="0 0 152 20" fill="none" xmlns="http://www.w3.org/2000/svg">
<path d="M75.693 17.0879H70.573V3.39985H75.693V17.0879ZM71.073 16.5879H75.193V3.89985H71.073V16.5879ZM82.817 17.0879H77.8V3.39985H88.282C89.7836 3.27825 91.279 3.69982 92.496 4.58785C93.0199 5.06716 93.426 5.66104 93.6825 6.32314C93.9391 6.98525 94.0392 7.69768 93.975 8.40485C94.0498 9.62682 93.6609 10.8321 92.886 11.7799C91.969 12.8319 90.443 13.3739 88.351 13.3929C87.824 13.4069 83.875 13.3929 82.82 13.3929L82.817 17.0879ZM78.297 16.5879H82.317V12.8879H82.568C82.619 12.8879 87.746 12.9039 88.339 12.8879C90.288 12.8709 91.689 12.3879 92.508 11.4449C93.1978 10.5873 93.5404 9.502 93.468 8.40385C93.5295 7.77022 93.4442 7.13094 93.2188 6.53559C92.9933 5.94024 92.6338 5.40482 92.168 4.97085C91.0396 4.16095 89.659 3.78078 88.275 3.89885H78.3L78.297 16.5879ZM87.22 10.3179H82.283V6.59185H87.253C87.6053 6.54317 87.9642 6.58429 88.2963 6.71138C88.6285 6.83848 88.9232 7.04743 89.153 7.31885C89.3615 7.66579 89.4598 8.06783 89.435 8.47185C89.4537 8.84695 89.3727 9.22032 89.2 9.55385C88.9629 9.83973 88.6562 10.0598 88.3094 10.1929C87.9627 10.326 87.5875 10.3677 87.22 10.3139V10.3179ZM82.783 9.81785H87.22C88.04 9.81785 88.548 9.64685 88.773 9.29485C88.8969 9.039 88.953 8.75561 88.936 8.47185C88.9579 8.17391 88.8933 7.87599 88.75 7.61385L88.744 7.60485C88.506 7.25485 88.033 7.09185 87.253 7.09185H82.783V9.81785ZM103.1 17.2899C98.61 17.2899 95.93 16.1749 94.909 13.8819C94.7419 13.439 94.6285 12.9777 94.571 12.5079L94.527 12.2199H99.869L99.904 12.4299C99.9451 12.6431 100.036 12.8438 100.168 13.0159C100.379 13.2709 101.083 13.6989 103.419 13.6989C106.227 13.6989 106.227 13.2059 106.227 12.9409C106.227 12.4939 105.902 12.3409 103.612 12.0969L103.177 12.0559C102.315 11.9749 101.225 11.8719 100.727 11.8289C96.527 11.4489 94.652 10.1439 94.652 7.59885C94.652 4.92585 97.843 3.19885 102.782 3.19885C106.811 3.19885 109.407 4.26085 110.496 6.35785C110.754 6.84563 110.928 7.37384 111.009 7.91985L111.044 8.20085H105.696L105.674 7.97485C105.653 7.79823 105.578 7.63254 105.458 7.50085C105.258 7.23285 104.626 6.78985 102.664 6.78985C100.255 6.78985 99.923 7.09785 99.923 7.42985C99.923 7.87285 100.684 8.02985 103.123 8.29085C104.14 8.37385 105.775 8.54185 106.335 8.60985C109.856 8.99185 111.427 10.2649 111.427 12.7389C111.428 14.8139 109.983 17.2899 103.1 17.2899ZM95.111 12.7199C95.1611 13.0497 95.2473 13.3729 95.368 13.6839C96.298 15.7729 98.828 16.7899 103.1 16.7899C106.672 16.7899 110.931 16.0899 110.931 12.7389C110.931 10.5459 109.541 9.45985 106.282 9.10685C105.722 9.03885 104.097 8.87185 103.082 8.78785C100.482 8.50585 99.425 8.35585 99.425 7.42985C99.425 6.47185 100.564 6.28985 102.666 6.28985C104.327 6.28985 105.4 6.58985 105.855 7.19485C105.979 7.3439 106.073 7.5158 106.131 7.70085H110.465C110.378 7.3141 110.24 6.94054 110.055 6.58985C109.055 4.67085 106.612 3.69885 102.784 3.69885C98.149 3.69885 95.154 5.22985 95.154 7.59885C95.154 9.85885 96.835 10.9749 100.773 11.3309C101.273 11.3739 102.362 11.4769 103.226 11.5589L103.664 11.5999C105.791 11.8239 106.729 11.9639 106.729 12.9409C106.729 13.9929 105.516 14.1989 103.421 14.1989C101.483 14.1989 100.259 13.9079 99.786 13.3349C99.6402 13.1522 99.5302 12.9435 99.462 12.7199H95.111ZM120.927 17.2729C115.707 17.2729 112.827 15.1619 112.827 11.3279V3.39985H117.879V11.3279C117.879 12.6429 119.056 13.3969 121.107 13.3969C123.067 13.3969 124.284 12.6099 124.284 11.3449V3.39985H129.284V11.7479C129.289 15.2589 126.24 17.2729 120.924 17.2729H120.927ZM113.327 3.89985V11.3279C113.327 16.0659 118.085 16.7729 120.927 16.7729C123.865 16.7729 128.792 16.1199 128.792 11.7479V3.89985H124.792V11.3449C124.792 12.8949 123.348 13.8969 121.115 13.8969C118.781 13.8969 117.387 12.9369 117.387 11.3279V3.89985H113.327ZM150.472 17.0879H145.704V10.9079L143 17.0879H138.841L136.165 10.9199V17.0879H131.38V3.39985H137.674L140.944 10.9469L144.372 3.39985H150.478L150.472 17.0879ZM146.204 16.5879H149.972V3.89985H144.69L140.928 12.1789L137.342 3.89985H131.876V16.5879H135.661V8.51385L139.161 16.5909H142.661L146.198 8.52585L146.204 16.5879ZM6.054 3.64985H1.5V16.8379H14.084V13.3269H6.054V3.64985ZM23.276 3.34985C17.463 3.34985 14.406 6.10485 14.406 10.1499C14.406 14.7199 17.615 17.0379 23.276 17.0379C29.508 17.0379 32.129 14.3499 32.129 10.1499C32.129 5.88485 29.172 3.34785 23.276 3.34785V3.34985ZM23.259 6.77685C23.6547 6.77499 24.0502 6.79803 24.443 6.84585L19.352 11.9369C19.1111 11.392 18.9936 10.8005 19.008 10.2049C19.008 8.13585 20.05 6.77485 23.259 6.77485V6.77685ZM23.276 13.6649C22.8947 13.6666 22.5137 13.6452 22.135 13.6009L27.235 8.50085C27.4669 9.03675 27.5779 9.61718 27.56 10.2009C27.56 12.2139 26.6 13.6629 23.276 13.6629V13.6649ZM41.152 11.8649H45.839C45.77 12.1902 45.6262 12.4949 45.419 12.7549C44.4473 13.5465 43.2072 13.9317 41.958 13.8299C41.3292 13.8972 40.6934 13.8285 40.0935 13.6285C39.4936 13.4286 38.9436 13.102 38.481 12.6709C38.0071 11.9758 37.782 11.141 37.842 10.3019C37.7653 9.42259 38.0101 8.54537 38.531 7.83285C39.186 7.09285 40.295 6.77385 41.925 6.77385C42.9621 6.68798 43.9979 6.95433 44.865 7.52985C45.1383 7.74693 45.3426 8.03876 45.453 8.36985H49.8C49.7684 7.82432 49.6372 7.28918 49.413 6.79085C48.372 4.67385 45.952 3.41385 41.837 3.41385C38.258 3.41385 35.856 4.50585 34.529 6.15285C33.6526 7.34221 33.2027 8.79229 33.252 10.2689C33.1953 11.7789 33.6336 13.266 34.5 14.5039C35.811 16.2039 38.146 17.0399 40.952 17.0399C42.8175 17.17 44.6703 16.6475 46.193 15.5619L46.311 16.8379H49.922V9.02585H41.152V11.8649ZM60.171 3.34685C54.359 3.34685 51.301 6.10185 51.301 10.1469C51.301 14.7169 54.509 17.0349 60.171 17.0349C66.404 17.0349 69.025 14.3469 69.025 10.1469C69.025 5.88485 66.068 3.34785 60.171 3.34785V3.34685ZM60.155 6.77385C60.5403 6.77271 60.9253 6.79475 61.308 6.83985L56.237 11.9139C56.0036 11.375 55.89 10.792 55.904 10.2049C55.9 8.13585 56.946 6.77485 60.155 6.77485V6.77385ZM60.171 13.6619C59.7796 13.6636 59.3885 13.6408 59 13.5939L64.117 8.47585C64.3577 9.01888 64.4729 9.60917 64.454 10.2029C64.456 12.2139 63.5 13.6629 60.171 13.6629V13.6619Z" fill="white"/>
</svg>
