<svg width="132" height="36" viewBox="0 0 132 36" fill="none" xmlns="http://www.w3.org/2000/svg">
<path d="M30.5207 12.9639C30.8807 12.9639 31.0007 13.0939 31.0007 13.4439V21.3639H35.0707C35.4207 21.3639 35.5507 21.4939 35.5507 21.8439V22.5439C35.5507 22.8939 35.4207 23.0239 35.0707 23.0239H29.7107C29.3607 23.0239 29.2207 22.8939 29.2207 22.5439V13.4439C29.2207 13.0939 29.3607 12.9639 29.7107 12.9639H30.5207Z" fill="white"/>
<path d="M39.0996 16.4539C39.0996 14.1439 40.5596 12.7539 43.0996 12.7539C45.6396 12.7539 47.0996 14.1439 47.0996 16.4539V19.5339C47.0996 21.8439 45.6296 23.2339 43.0996 23.2339C40.5696 23.2339 39.0996 21.8439 39.0996 19.5339V16.4539ZM45.4196 16.4539C45.4196 15.1539 44.6096 14.4539 43.1496 14.4539C41.6896 14.4539 40.8896 15.1639 40.8896 16.4539V19.5539C40.8896 20.8639 41.6896 21.5539 43.1496 21.5539C44.6096 21.5539 45.4196 20.8339 45.4196 19.5539V16.4539Z" fill="white"/>
<path d="M59.0097 17.5139C59.3997 17.5139 59.4897 17.6439 59.4897 17.9939V19.8939C59.5003 20.3414 59.4106 20.7857 59.2272 21.194C59.0437 21.6024 58.7713 21.9645 58.4297 22.2539C57.5814 22.9294 56.5118 23.2645 55.4297 23.1939C52.8397 23.1939 51.4297 21.8039 51.4297 19.4939V16.3939C51.4297 14.1139 52.8897 12.7139 55.4297 12.7139C57.4297 12.7139 58.7297 13.5039 59.2797 15.0839C59.3105 15.1433 59.327 15.209 59.3279 15.2758C59.3288 15.3427 59.3141 15.4089 59.285 15.469C59.2559 15.5292 59.2131 15.5818 59.1601 15.6226C59.1071 15.6633 59.0453 15.6912 58.9797 15.7039L58.1997 15.9739C57.8597 16.0939 57.7197 16.0239 57.5997 15.6739C57.434 15.2468 57.1307 14.887 56.7377 14.6516C56.3447 14.4162 55.8845 14.3184 55.4297 14.3739C53.9597 14.3739 53.1597 15.0839 53.1597 16.3739V19.5539C53.1597 20.8639 53.9697 21.5539 55.4297 21.5539C56.8897 21.5539 57.7897 20.8839 57.7897 19.9039V19.1639H55.6197C55.2597 19.1639 55.1297 19.0239 55.1297 18.6739V17.9939C55.1297 17.6439 55.2597 17.5139 55.6197 17.5139H59.0097Z" fill="white"/>
<path d="M63.6201 16.4539C63.6201 14.1439 65.0801 12.7539 67.6201 12.7539C70.1601 12.7539 71.6201 14.1439 71.6201 16.4539V19.5339C71.6201 21.8439 70.1501 23.2339 67.6201 23.2339C65.0901 23.2339 63.6201 21.8439 63.6201 19.5339V16.4539ZM69.9301 16.4539C69.9301 15.1539 69.1201 14.4539 67.6701 14.4539C66.2201 14.4539 65.4001 15.1639 65.4001 16.4539V19.5539C65.4001 20.8639 66.2101 21.5539 67.6701 21.5539C69.1301 21.5539 69.9301 20.8339 69.9301 19.5539V16.4539Z" fill="white"/>
<path d="M76.3301 13.2539C76.3301 13.0339 76.4001 12.9639 76.6201 12.9639H77.0801C77.3001 12.9639 77.3501 13.0339 77.3501 13.2539V22.7339C77.3501 22.9539 77.3501 23.0239 77.0801 23.0239H76.6201C76.4001 23.0239 76.3301 22.9539 76.3301 22.7339V13.2539Z" fill="white"/>
<path d="M86.4604 12.9639C87.2932 12.9639 88.0918 13.2947 88.6807 13.8836C89.2696 14.4724 89.6004 15.2711 89.6004 16.1039C89.6004 16.9367 89.2696 17.7354 88.6807 18.3242C88.0918 18.9131 87.2932 19.2439 86.4604 19.2439H83.4604V22.7339C83.4604 22.9539 83.4104 23.0239 83.2004 23.0239H82.7304C82.5204 23.0239 82.4404 22.9539 82.4404 22.7339V13.2539C82.4404 13.0339 82.5204 12.9639 82.7304 12.9639H86.4604ZM86.3704 18.2539C86.6567 18.2539 86.9402 18.1975 87.2047 18.088C87.4691 17.9784 87.7095 17.8178 87.9119 17.6154C88.1143 17.413 88.2749 17.1726 88.3845 16.9082C88.494 16.6437 88.5504 16.3602 88.5504 16.0739C88.5504 15.7876 88.494 15.5041 88.3845 15.2396C88.2749 14.9752 88.1143 14.7348 87.9119 14.5324C87.7095 14.33 87.4691 14.1694 87.2047 14.0598C86.9402 13.9503 86.6567 13.8939 86.3704 13.8939H83.3704V18.2539H86.3704Z" fill="white"/>
<path d="M97.4103 12.7639C98.1824 12.6787 98.9613 12.8448 99.6315 13.2375C100.301 13.6303 100.827 14.2287 101.13 14.9439C101.21 15.1039 101.13 15.2339 100.97 15.3139L100.53 15.5139C100.35 15.5839 100.28 15.5739 100.17 15.3839C99.9437 14.8531 99.5542 14.4081 99.058 14.1133C98.5619 13.8185 97.9848 13.6891 97.4103 13.7439C95.7203 13.7439 94.8003 14.4139 94.8003 15.6139C94.7905 15.9806 94.9136 16.3386 95.1471 16.6216C95.3805 16.9046 95.7084 17.0937 96.0703 17.1539C96.6081 17.3293 97.1658 17.4368 97.7303 17.4739C98.4136 17.5103 99.0877 17.6485 99.7303 17.8839C100.223 18.0398 100.647 18.3604 100.931 18.792C101.215 19.2236 101.342 19.7398 101.29 20.2539C101.29 22.1239 99.9303 23.2539 97.4303 23.2539C96.6103 23.3477 95.7829 23.1577 95.086 22.7155C94.3891 22.2734 93.8647 21.6057 93.6003 20.8239C93.5826 20.7883 93.5731 20.7492 93.5723 20.7094C93.5715 20.6696 93.5796 20.6302 93.5958 20.5939C93.612 20.5576 93.6361 20.5253 93.6663 20.4994C93.6964 20.4734 93.7319 20.4545 93.7703 20.4439L94.2103 20.2839C94.2449 20.2697 94.2822 20.2629 94.3196 20.2639C94.357 20.2649 94.3938 20.2737 94.4277 20.2897C94.4615 20.3057 94.4917 20.3285 94.5162 20.3568C94.5408 20.3851 94.5592 20.4181 94.5703 20.4539C94.794 21.0188 95.1918 21.4978 95.706 21.8215C96.2202 22.1451 96.8242 22.2966 97.4303 22.2539C99.3203 22.2539 100.25 21.5939 100.25 20.2539C100.268 19.9017 100.16 19.5546 99.9457 19.2744C99.7315 18.9943 99.4248 18.7992 99.0803 18.7239C98.5629 18.5696 98.0293 18.4756 97.4903 18.4439L96.4103 18.3039C96.0723 18.2322 95.7385 18.142 95.4103 18.0339C95.0861 17.936 94.7839 17.7764 94.5203 17.5639C94.255 17.3237 94.0459 17.0281 93.9076 16.698C93.7694 16.3679 93.7054 16.0115 93.7203 15.6539C93.7903 13.9039 95.1003 12.7639 97.4103 12.7639Z" fill="white"/>
<path d="M106.68 19.6039C106.722 20.3111 107.033 20.9754 107.549 21.4611C108.065 21.9468 108.747 22.2172 109.455 22.2172C110.163 22.2172 110.845 21.9468 111.361 21.4611C111.877 20.9754 112.187 20.3111 112.23 19.6039V13.2539C112.23 13.0339 112.3 12.9639 112.52 12.9639H112.98C113.2 12.9639 113.27 13.0339 113.27 13.2539V19.5939C113.27 21.8639 111.93 23.2339 109.46 23.2339C106.99 23.2339 105.65 21.8639 105.65 19.5939V13.2539C105.65 13.0339 105.72 12.9639 105.93 12.9639H106.4C106.61 12.9639 106.68 13.0339 106.68 13.2539V19.6039Z" fill="white"/>
<path d="M127.07 12.9639C127.29 12.9639 127.36 13.0339 127.36 13.2539V22.7339C127.36 22.9539 127.29 23.0239 127.07 23.0239H126.65C126.44 23.0239 126.37 22.9539 126.37 22.7339V16.9639C126.37 16.1244 126.427 15.2858 126.54 14.4539H126.48C126.168 15.2146 125.803 15.953 125.39 16.6639L123.24 20.4539C123.214 20.5197 123.168 20.5759 123.109 20.6152C123.05 20.6544 122.981 20.6749 122.91 20.6739H122.63C122.558 20.6743 122.488 20.6536 122.427 20.6146C122.367 20.5755 122.319 20.5197 122.29 20.4539L120.11 16.6239C119.723 15.9232 119.389 15.1945 119.11 14.4439H119.05C119.152 15.2834 119.206 16.1282 119.21 16.9739V22.7339C119.21 22.9539 119.14 23.0239 118.92 23.0239H118.53C118.31 23.0239 118.24 22.9539 118.24 22.7339V13.2539C118.24 13.0339 118.31 12.9639 118.53 12.9639H118.89C118.972 12.9563 119.055 12.9742 119.126 13.0154C119.198 13.0566 119.255 13.119 119.29 13.1939L122.79 19.4139L126.27 13.2539C126.38 13.0439 126.44 13.0139 126.66 13.0139L127.07 12.9639Z" fill="white"/>
<path d="M12.73 21.5039V28.7339C12.73 29.0111 12.6199 29.2769 12.4239 29.4728C12.228 29.6688 11.9622 29.7789 11.685 29.7789C11.4079 29.7789 11.1421 29.6688 10.9461 29.4728C10.7501 29.2769 10.64 29.0111 10.64 28.7339V21.5139C10.931 21.7264 11.2798 21.845 11.64 21.8539C12.0326 21.8651 12.4173 21.7416 12.73 21.5039ZM21.63 19.4139C21.3648 19.4139 21.1104 19.5193 20.9229 19.7068C20.7354 19.8943 20.63 20.1487 20.63 20.4139V21.6739C20.63 21.9511 20.7401 22.2169 20.9361 22.4128C21.132 22.6088 21.3978 22.7189 21.675 22.7189C21.9522 22.7189 22.218 22.6088 22.4139 22.4128C22.6099 22.2169 22.72 21.9511 22.72 21.6739V20.4639C22.7278 20.3205 22.7046 20.1771 22.652 20.0435C22.5994 19.9099 22.5187 19.7891 22.4152 19.6895C22.3118 19.5899 22.1881 19.5137 22.0527 19.4661C21.9172 19.4186 21.773 19.4008 21.63 19.4139ZM8.37 24.2439C8.01017 24.2331 7.66183 24.1147 7.37 23.9039V31.1539C7.37 31.4324 7.48062 31.6995 7.67754 31.8964C7.87445 32.0933 8.14152 32.2039 8.42 32.2039C8.69848 32.2039 8.96555 32.0933 9.16246 31.8964C9.35938 31.6995 9.47 31.4324 9.47 31.1539V23.9539C9.14345 24.165 8.75816 24.2666 8.37 24.2439ZM18.37 17.2439C18.2345 17.2371 18.0991 17.258 17.9719 17.3052C17.8448 17.3524 17.7286 17.425 17.6303 17.5185C17.5321 17.6121 17.454 17.7246 17.4006 17.8493C17.3473 17.974 17.3198 18.1083 17.32 18.2439V23.8139C17.32 24.0924 17.4306 24.3595 17.6275 24.5564C17.8245 24.7533 18.0915 24.8639 18.37 24.8639C18.6485 24.8639 18.9156 24.7533 19.1125 24.5564C19.3094 24.3595 19.42 24.0924 19.42 23.8139V18.3139C19.428 18.1696 19.4046 18.0253 19.3514 17.8909C19.2982 17.7565 19.2166 17.6352 19.112 17.5354C19.0074 17.4356 18.8825 17.3596 18.7458 17.3128C18.6091 17.2659 18.4638 17.2492 18.32 17.2639L18.37 17.2439ZM15.05 19.3839C14.6733 19.3813 14.3067 19.2626 14 19.0439V26.3139C14 26.5924 14.1106 26.8595 14.3075 27.0564C14.5045 27.2533 14.7715 27.3639 15.05 27.3639C15.3285 27.3639 15.5955 27.2533 15.7925 27.0564C15.9894 26.8595 16.1 26.5924 16.1 26.3139V19.0539C15.7828 19.2902 15.3955 19.4134 15 19.4039L15.05 19.3839ZM6.1 24.9539V4.64387C6.09737 4.3963 5.99717 4.15978 5.82117 3.98565C5.64517 3.81152 5.40758 3.71386 5.16 3.71387H4.94C4.69242 3.71386 4.45483 3.81152 4.27883 3.98565C4.10283 4.15978 4.00263 4.3963 4 4.64387V24.9539C4 25.2032 4.09904 25.4423 4.27532 25.6186C4.4516 25.7949 4.6907 25.8939 4.94 25.8939H5.16C5.40931 25.8939 5.6484 25.7949 5.82468 25.6186C6.00097 25.4423 6.1 25.2032 6.1 24.9539ZM8.48 23.4739H8.26C8.0107 23.4739 7.7716 23.3749 7.59532 23.1986C7.41904 23.0223 7.32 22.7832 7.32 22.5339V7.06387C7.32264 6.81631 7.42283 6.57977 7.59883 6.40565C7.77483 6.23152 8.01242 6.13386 8.26 6.13387H8.48C8.72758 6.13386 8.96517 6.23152 9.14117 6.40565C9.31717 6.57977 9.41737 6.81631 9.42 7.06387V22.5539C9.42 22.8032 9.32096 23.0423 9.14468 23.2186C8.9684 23.3949 8.7293 23.4939 8.48 23.4939V23.4739ZM11.79 21.0939H11.56C11.3134 21.0939 11.0768 20.9959 10.9024 20.8215C10.728 20.6471 10.63 20.4106 10.63 20.1639V9.46387C10.6287 9.3409 10.6518 9.21889 10.6979 9.1049C10.744 8.99091 10.8123 8.88721 10.8988 8.79979C10.9853 8.71237 11.0883 8.64297 11.2018 8.59561C11.3153 8.54825 11.437 8.52386 11.56 8.52387H11.79C12.0376 8.52651 12.2741 8.6267 12.4482 8.8027C12.6224 8.9787 12.72 9.21629 12.72 9.46387V20.1639C12.72 20.4106 12.622 20.6471 12.4476 20.8215C12.2732 20.9959 12.0367 21.0939 11.79 21.0939ZM15.1 18.6439H14.89C14.6424 18.6439 14.4048 18.5463 14.2288 18.3721C14.0528 18.198 13.9526 17.9615 13.95 17.7139V11.9539C13.9418 11.8255 13.96 11.6968 14.0036 11.5757C14.0471 11.4547 14.1151 11.3438 14.2032 11.2501C14.2913 11.1563 14.3977 11.0817 14.5159 11.0307C14.634 10.9798 14.7613 10.9536 14.89 10.9539H15.11C15.3593 10.9539 15.5984 11.0529 15.7747 11.2292C15.951 11.4055 16.05 11.6446 16.05 11.8939V17.6939C16.0513 17.8182 16.028 17.9415 15.9813 18.0567C15.9347 18.1719 15.8657 18.2767 15.7782 18.3651C15.6908 18.4534 15.5868 18.5235 15.472 18.5714C15.3573 18.6193 15.2343 18.6439 15.11 18.6439H15.1ZM18.42 16.4939H18.2C17.9507 16.4939 17.7116 16.3949 17.5353 16.2186C17.359 16.0423 17.26 15.8032 17.26 15.5539V14.0639C17.2626 13.8163 17.3628 13.5798 17.5388 13.4057C17.7148 13.2315 17.9524 13.1339 18.2 13.1339H18.42C18.6676 13.1339 18.9052 13.2315 19.0812 13.4057C19.2572 13.5798 19.3574 13.8163 19.36 14.0639V15.5539C19.36 15.8015 19.2624 16.0391 19.0882 16.2151C18.9141 16.3911 18.6776 16.4913 18.43 16.4939H18.42Z" fill="white"/>
</svg>
