<svg width="124" height="33" viewBox="0 0 124 33" fill="none" xmlns="http://www.w3.org/2000/svg">
<path d="M36.8701 10.7838H39.8701V22.9138H36.8701V10.7838ZM41.0601 18.3338C41.0601 15.3338 42.9001 13.5438 45.7401 13.5438C48.5801 13.5438 50.4201 15.3338 50.4201 18.3338C50.4201 21.3338 48.6201 23.1338 45.7401 23.1338C42.8601 23.1338 41.0601 21.3838 41.0601 18.3338ZM47.4101 18.3338C47.4101 16.6838 46.7601 15.7138 45.7401 15.7138C44.7201 15.7138 44.0801 16.7138 44.0801 18.3338C44.0801 19.9538 44.7101 20.9338 45.7401 20.9338C46.7701 20.9338 47.4101 20.0138 47.4101 18.3438V18.3338ZM51.5501 23.5038H54.4301C54.5672 23.8083 54.7989 24.0604 55.0908 24.2226C55.3827 24.3847 55.7192 24.4483 56.0501 24.4038C57.1901 24.4038 57.7901 23.7838 57.7901 22.8838V21.2038H57.7301C57.4911 21.7187 57.1032 22.1501 56.6166 22.4425C56.13 22.7348 55.5669 22.8746 55.0001 22.8438C52.8101 22.8438 51.3601 21.1738 51.3601 18.3038C51.3601 15.4338 52.7401 13.6238 55.0401 13.6238C55.6247 13.6009 56.2023 13.7572 56.6956 14.0717C57.1889 14.3863 57.5743 14.8441 57.8001 15.3838V13.7138H60.8001V22.8138C60.8001 25.0038 58.8701 26.3638 56.0201 26.3638C53.3701 26.3638 51.7201 25.1738 51.5501 23.5138V23.5038ZM57.8001 18.3238C57.8001 16.8638 57.1301 15.9438 56.0701 15.9438C55.0101 15.9438 54.3601 16.8538 54.3601 18.3238C54.3601 19.7938 55.0001 20.6238 56.0701 20.6238C57.1401 20.6238 57.8001 19.8138 57.8001 18.3338V18.3238ZM61.9301 18.3238C61.9301 15.3238 63.7701 13.5338 66.6101 13.5338C69.4501 13.5338 71.3001 15.3238 71.3001 18.3238C71.3001 21.3238 69.5001 23.1238 66.6101 23.1238C63.7201 23.1238 61.9301 21.3838 61.9301 18.3338V18.3238ZM68.2801 18.3238C68.2801 16.6738 67.6301 15.7038 66.6101 15.7038C65.5901 15.7038 65.0001 16.7138 65.0001 18.3438C65.0001 19.9738 65.6301 20.9438 66.6501 20.9438C67.6701 20.9438 68.2801 20.0138 68.2801 18.3438V18.3238ZM72.4401 11.5338C72.4322 11.2309 72.5145 10.9325 72.6764 10.6764C72.8384 10.4203 73.0727 10.2181 73.3497 10.0953C73.6267 9.97256 73.9339 9.93481 74.2324 9.98686C74.5309 10.0389 74.8072 10.1784 75.0263 10.3877C75.2455 10.597 75.3975 10.8666 75.4632 11.1624C75.5289 11.4582 75.5053 11.7668 75.3953 12.0492C75.2854 12.3315 75.0941 12.5749 74.8457 12.7484C74.5974 12.9219 74.303 13.0178 74.0001 13.0238C73.7993 13.0376 73.5978 13.0097 73.4083 12.9419C73.2187 12.8741 73.0453 12.7679 72.8988 12.6298C72.7523 12.4918 72.6359 12.3249 72.557 12.1397C72.478 11.9546 72.4382 11.7551 72.4401 11.5538V11.5338ZM72.4401 13.7338H75.4401V22.9138H72.4401V13.7338ZM86.3301 18.3238C86.3301 21.3238 85.0001 23.0338 82.7201 23.0338C82.1355 23.0713 81.5534 22.9284 81.0526 22.6244C80.5518 22.3203 80.1565 21.8698 79.9201 21.3338H79.8601V25.8538H76.8601V13.7138H79.8601V15.3538H79.9201C80.1455 14.8089 80.5333 14.3467 81.0307 14.03C81.5281 13.7133 82.111 13.5575 82.7001 13.5838C85.0001 13.6238 86.3701 15.3438 86.3701 18.3438L86.3301 18.3238ZM83.3301 18.3238C83.3301 16.8638 82.6601 15.9338 81.6101 15.9338C80.5601 15.9338 79.8901 16.8738 79.8801 18.3238C79.8701 19.7738 80.5601 20.7038 81.6101 20.7038C82.6601 20.7038 83.3301 19.7938 83.3301 18.3438V18.3238ZM91.4801 13.5238C93.9701 13.5238 95.4801 14.7038 95.5501 16.5938H92.8201C92.8201 15.9438 92.2801 15.5338 91.4501 15.5338C90.6201 15.5338 90.2501 15.8538 90.2501 16.3238C90.2501 16.7938 90.5801 16.9438 91.2501 17.0838L93.1701 17.4738C95.0001 17.8638 95.7801 18.6038 95.7801 19.9938C95.7801 21.8938 94.0501 23.1138 91.5001 23.1138C88.9501 23.1138 87.2801 21.8938 87.1501 20.0238H90.0401C90.1301 20.7038 90.6701 21.1038 91.5501 21.1038C92.4301 21.1038 92.8301 20.8138 92.8301 20.3338C92.8301 19.8538 92.5501 19.7538 91.8301 19.6038L90.1001 19.2338C88.3101 18.8638 87.3701 17.9138 87.3701 16.5138C87.3901 14.7138 89.0001 13.5438 91.4801 13.5438V13.5238ZM105.79 22.8938H102.9V21.1838H102.84C102.681 21.7579 102.331 22.2604 101.847 22.6079C101.363 22.9553 100.775 23.1268 100.18 23.0938C99.7243 23.1197 99.2683 23.0475 98.8428 22.882C98.4173 22.7165 98.0323 22.4617 97.7138 22.1346C97.3953 21.8076 97.1506 21.4159 96.9965 20.9862C96.8423 20.5565 96.7822 20.0987 96.8201 19.6438V13.7138H99.8201V18.9538C99.8201 20.0438 100.38 20.6238 101.31 20.6238C101.528 20.6242 101.744 20.5781 101.943 20.4884C102.141 20.3987 102.319 20.2675 102.463 20.1037C102.606 19.9398 102.714 19.7471 102.777 19.5385C102.84 19.3298 102.859 19.11 102.83 18.8938V13.7138H105.83L105.79 22.8938ZM107.24 13.7138H110.14V15.4838H110.2C110.359 14.9173 110.702 14.4195 111.174 14.0685C111.646 13.7175 112.222 13.5329 112.81 13.5438C113.409 13.4959 114.003 13.675 114.476 14.0456C114.948 14.4162 115.264 14.951 115.36 15.5438H115.42C115.601 14.9447 115.977 14.4231 116.488 14.061C116.998 13.6989 117.615 13.5169 118.24 13.5438C118.648 13.5301 119.054 13.6024 119.432 13.756C119.811 13.9095 120.152 14.141 120.435 14.4352C120.718 14.7295 120.936 15.08 121.075 15.4639C121.213 15.8478 121.27 16.2567 121.24 16.6638V22.9138H118.24V17.4638C118.24 16.4638 117.79 16.0038 116.95 16.0038C116.763 16.0022 116.577 16.0408 116.406 16.117C116.235 16.1932 116.082 16.3052 115.958 16.4455C115.834 16.5858 115.741 16.751 115.686 16.9301C115.631 17.1093 115.616 17.2981 115.64 17.4838V22.9138H112.79V17.4238C112.79 16.5038 112.34 16.0038 111.52 16.0038C111.331 16.0039 111.143 16.0441 110.971 16.1218C110.798 16.1996 110.643 16.3131 110.518 16.4548C110.392 16.5965 110.298 16.7633 110.241 16.9442C110.185 17.125 110.167 17.3157 110.19 17.5038V22.9138H107.19L107.24 13.7138Z" fill="white"/>
<path d="M28.4796 11.3339C27.9707 10.1702 27.2972 9.08581 26.4796 8.11388C25.2711 6.63422 23.7629 5.42727 22.0543 4.57248C20.3457 3.7177 18.4754 3.23445 16.5666 3.15454C14.6578 3.07463 12.7537 3.39987 10.9796 4.10887C9.20558 4.81786 7.60178 5.89453 6.27381 7.26801C4.94583 8.64148 3.92378 10.2806 3.27493 12.0776C2.62608 13.8745 2.36513 15.7885 2.50927 17.6935C2.65342 19.5986 3.19937 21.4515 4.11121 23.1303C5.02305 24.8092 6.2801 26.2759 7.79962 27.4339C8.77462 28.1918 9.85197 28.8079 10.9996 29.2639C12.6086 29.9233 14.3307 30.2629 16.0696 30.2639C19.659 30.256 23.0988 28.8252 25.6351 26.2852C28.1713 23.7452 29.597 20.3033 29.5996 16.7139C29.6022 14.8624 29.2209 13.0305 28.4796 11.3339ZM16.0596 5.90387C17.6212 5.90371 19.1639 6.24501 20.5796 6.90387C20.2344 7.05304 19.8714 7.15723 19.4996 7.21388C18.2762 7.39097 17.1429 7.95895 16.2688 8.83305C15.3947 9.70714 14.8267 10.8405 14.6496 12.0639C14.5719 12.75 14.2598 13.3883 13.7661 13.8711C13.2724 14.3539 12.6273 14.6515 11.9396 14.7139C10.7162 14.891 9.58288 15.459 8.70879 16.3331C7.8347 17.2072 7.26671 18.3405 7.08962 19.5639C7.02966 20.2163 6.75131 20.8294 6.29962 21.3039C5.52027 19.6572 5.17017 17.84 5.28189 16.0216C5.39361 14.2032 5.96352 12.4426 6.93859 10.9036C7.91365 9.36467 9.26219 8.09739 10.8587 7.21972C12.4552 6.34205 14.2478 5.88252 16.0696 5.88387L16.0596 5.90387ZM7.78962 23.7139C7.90962 23.6039 8.02962 23.5039 8.14962 23.3839C9.03927 22.5214 9.61033 21.3828 9.76962 20.1539C9.8342 19.4631 10.1426 18.8179 10.6396 18.3339C11.1179 17.8361 11.7616 17.5302 12.4496 17.4739C13.673 17.2968 14.8063 16.7288 15.6804 15.8547C16.5545 14.9806 17.1225 13.8473 17.2996 12.6239C17.3429 11.9014 17.6529 11.2207 18.1696 10.7139C18.6597 10.2257 19.3095 9.93098 19.9996 9.88387C21.1235 9.72924 22.1717 9.22959 22.9996 8.45388C23.9423 9.23595 24.7409 10.1768 25.3596 11.2339C25.3216 11.2852 25.278 11.3322 25.2296 11.3739C24.7523 11.8761 24.1094 12.1887 23.4196 12.2539C22.1949 12.4279 21.0599 12.9949 20.1852 13.8695C19.3106 14.7442 18.7436 15.8792 18.5696 17.1039C18.4991 17.7923 18.1928 18.4352 17.7026 18.9236C17.2123 19.4121 16.5683 19.716 15.8796 19.7839C14.6526 19.9596 13.5151 20.5265 12.6359 21.4002C11.7568 22.274 11.1829 23.408 10.9996 24.6339C10.9458 25.1226 10.7779 25.5919 10.5096 26.0039C9.48361 25.3947 8.56471 24.6211 7.78962 23.7139ZM16.0596 27.5739C15.0449 27.575 14.035 27.4336 13.0596 27.1539C13.3933 26.5319 13.6102 25.854 13.6996 25.1539C13.7697 24.467 14.0746 23.8253 14.5628 23.3371C15.051 22.8489 15.6927 22.544 16.3796 22.4739C17.6048 22.2988 18.7404 21.7317 19.6165 20.8574C20.4925 19.9832 21.062 18.8487 21.2396 17.6239C21.3097 16.937 21.6146 16.2953 22.1028 15.8071C22.591 15.3189 23.2327 15.014 23.9196 14.9439C24.8416 14.824 25.7204 14.4807 26.4796 13.9439C26.9012 15.5418 26.9511 17.215 26.6256 18.8352C26.3001 20.4554 25.6077 21.9796 24.6017 23.2907C23.5957 24.6017 22.3028 25.665 20.822 26.3988C19.3413 27.1326 17.7122 27.5175 16.0596 27.5239V27.5739Z" fill="white"/>
</svg>
