<svg width="134" height="35" viewBox="0 0 134 35" fill="none" xmlns="http://www.w3.org/2000/svg">
<path d="M15.4498 7.36389V3.11389H2.0498V32.3139H15.4498V28.0639C12.7048 28.0639 10.0722 26.9734 8.13124 25.0324C6.19024 23.0914 5.0998 20.4589 5.0998 17.7139C5.0998 14.9689 6.19024 12.3363 8.13124 10.3953C10.0722 8.45434 12.7048 7.36389 15.4498 7.36389Z" fill="white"/>
<path d="M15.4502 7.36389V28.0639C18.1952 28.0639 20.8278 26.9734 22.7688 25.0324C24.7098 23.0914 25.8002 20.4589 25.8002 17.7139C25.8002 14.9689 24.7098 12.3363 22.7688 10.3953C20.8278 8.45434 18.1952 7.36389 15.4502 7.36389Z" fill="white"/>
<path d="M33.3203 9.96387H36.3203V24.4139H33.3203V9.96387Z" fill="white"/>
<path d="M38.0005 19.4639C38.0005 18.4243 38.3092 17.4081 38.8874 16.5441C39.4656 15.6801 40.2873 15.0072 41.2484 14.6107C42.2095 14.2143 43.2666 14.1121 44.2858 14.3171C45.305 14.5221 46.2404 15.0251 46.9734 15.7623C47.7064 16.4996 48.2041 17.4378 48.4033 18.4582C48.6024 19.4786 48.4942 20.5351 48.0922 21.4939C47.6902 22.4526 47.0127 23.2705 46.1454 23.8437C45.2781 24.417 44.2601 24.7198 43.2205 24.7139C42.531 24.7193 41.8473 24.587 41.2096 24.3246C40.5719 24.0623 39.9929 23.6753 39.5067 23.1864C39.0205 22.6974 38.6369 22.1162 38.3782 21.477C38.1196 20.8378 37.9912 20.1534 38.0005 19.4639ZM45.5205 19.4639C45.5087 19.0157 45.365 18.5809 45.1074 18.214C44.8498 17.847 44.4898 17.5641 44.0722 17.4007C43.6547 17.2373 43.1983 17.2006 42.7601 17.2953C42.3218 17.3899 41.9212 17.6116 41.6083 17.9328C41.2954 18.2539 41.0841 18.6601 41.0009 19.1007C40.9177 19.5413 40.9662 19.9966 41.1404 20.4097C41.3146 20.8228 41.6067 21.1755 41.9803 21.4234C42.3538 21.6714 42.7921 21.8037 43.2405 21.8039C43.5458 21.8099 43.849 21.7528 44.1312 21.6362C44.4134 21.5197 44.6685 21.3462 44.8806 21.1266C45.0927 20.907 45.2572 20.6459 45.3639 20.3599C45.4706 20.0738 45.5171 19.7688 45.5005 19.4639H45.5205Z" fill="white"/>
<path d="M60.3093 14.5139V23.9239C60.3093 27.2439 57.7093 28.6539 55.0793 28.6539C54.1516 28.73 53.2211 28.5457 52.3926 28.1217C51.564 27.6977 50.8702 27.0508 50.3893 26.2539L52.9193 24.7939C53.1243 25.2073 53.4504 25.5483 53.8542 25.7716C54.258 25.9949 54.7202 26.0899 55.1793 26.0439C55.4718 26.0799 55.7686 26.0509 56.0485 25.9589C56.3285 25.8668 56.5846 25.7141 56.7986 25.5115C57.0127 25.3089 57.1793 25.0616 57.2866 24.7871C57.3939 24.5127 57.4392 24.2179 57.4193 23.9239V23.0139C57.0702 23.4372 56.6272 23.7732 56.1256 23.9954C55.6239 24.2176 55.0774 24.3198 54.5293 24.2939C53.2032 24.2939 51.9315 23.7671 50.9938 22.8294C50.0561 21.8918 49.5293 20.62 49.5293 19.2939C49.5293 17.9678 50.0561 16.6961 50.9938 15.7584C51.9315 14.8207 53.2032 14.2939 54.5293 14.2939C55.0774 14.268 55.6239 14.3702 56.1256 14.5924C56.6272 14.8146 57.0702 15.1506 57.4193 15.5739V14.5739L60.3093 14.5139ZM57.4193 19.2639C57.4392 18.7855 57.3156 18.312 57.0643 17.9044C56.813 17.4968 56.4456 17.1737 56.0091 16.9766C55.5727 16.7795 55.0874 16.7175 54.6154 16.7985C54.1435 16.8795 53.7065 17.0998 53.3608 17.4311C53.0151 17.7624 52.7764 18.1896 52.6754 18.6577C52.5744 19.1258 52.6157 19.6133 52.794 20.0577C52.9724 20.5021 53.2796 20.883 53.6761 21.1514C54.0727 21.4198 54.5405 21.5635 55.0193 21.5639C55.3318 21.5864 55.6455 21.5431 55.9401 21.4369C56.2348 21.3306 56.504 21.1637 56.7301 20.9469C56.9563 20.7302 57.1345 20.4684 57.2532 20.1785C57.3719 19.8886 57.4285 19.577 57.4193 19.2639Z" fill="white"/>
<path d="M62.0003 19.4639C62.0003 18.4251 62.3085 17.4097 62.8858 16.5461C63.4631 15.6825 64.2837 15.0096 65.2436 14.6126C66.2035 14.2155 67.2595 14.1121 68.2782 14.3155C69.2969 14.5189 70.2323 15.0199 70.9662 15.7551C71.7 16.4904 72.1992 17.4268 72.4006 18.4458C72.6021 19.4649 72.4968 20.5208 72.0979 21.4799C71.699 22.4391 71.0244 23.2583 70.1598 23.834C69.2951 24.4097 68.2791 24.7159 67.2403 24.7139C66.5495 24.7206 65.8643 24.5893 65.2249 24.3277C64.5855 24.0661 64.0046 23.6795 63.5166 23.1905C63.0285 22.7015 62.643 22.12 62.3826 21.4801C62.1223 20.8402 61.9923 20.1547 62.0003 19.4639ZM69.5203 19.4639C69.5085 19.0153 69.3645 18.5801 69.1065 18.2129C68.8485 17.8458 68.4878 17.5629 68.0697 17.3998C67.6516 17.2367 67.1947 17.2006 66.7562 17.2961C66.3177 17.3915 65.9171 17.6143 65.6046 17.9364C65.2921 18.2585 65.0816 18.6657 64.9996 19.1069C64.9175 19.5481 64.9674 20.0037 65.1431 20.4166C65.3188 20.8296 65.6125 21.1815 65.9874 21.4283C66.3622 21.675 66.8015 21.8057 67.2503 21.8039C67.5556 21.8099 67.8588 21.7528 68.141 21.6362C68.4232 21.5197 68.6783 21.3462 68.8904 21.1266C69.1025 20.907 69.267 20.6459 69.3737 20.3599C69.4804 20.0738 69.527 19.7688 69.5104 19.4639H69.5203Z" fill="white"/>
<path d="M73.8701 11.8639C73.8701 11.5119 73.9745 11.1677 74.1701 10.875C74.3657 10.5822 74.6437 10.3541 74.9689 10.2194C75.2942 10.0846 75.6521 10.0494 75.9974 10.1181C76.3426 10.1867 76.6598 10.3563 76.9088 10.6052C77.1577 10.8542 77.3272 11.1714 77.3959 11.5166C77.4646 11.8619 77.4293 12.2198 77.2946 12.5451C77.1599 12.8703 76.9317 13.1483 76.639 13.3439C76.3463 13.5395 76.0022 13.6439 75.6501 13.6439C75.1796 13.6387 74.7299 13.4495 74.3972 13.1168C74.0645 12.7841 73.8753 12.3344 73.8701 11.8639ZM74.1601 14.5139H77.1601V24.4139H74.1601V14.5139Z" fill="white"/>
<path d="M90.0005 19.4639C90.0341 20.1223 89.9372 20.7809 89.7153 21.4017C89.4935 22.0225 89.151 22.5933 88.7077 23.0812C88.2643 23.5692 87.7289 23.9646 87.1321 24.2448C86.5354 24.525 85.8891 24.6844 85.2305 24.7139C84.6716 24.7511 84.1115 24.6616 83.5921 24.4521C83.0726 24.2425 82.6072 23.9184 82.2305 23.5039V28.3939H79.2305V14.5139H82.2305V15.4439C82.6077 15.0306 83.0735 14.708 83.593 14.5002C84.1125 14.2923 84.6723 14.2047 85.2305 14.2439C85.8865 14.2734 86.5302 14.4319 87.1249 14.7102C87.7196 14.9885 88.2537 15.3813 88.6966 15.866C89.1396 16.3507 89.4827 16.9179 89.7064 17.5353C89.9301 18.1526 90.0301 18.8079 90.0005 19.4639ZM87.0005 19.4639C86.9887 18.9994 86.84 18.5488 86.5732 18.1685C86.3064 17.7882 85.9332 17.495 85.5005 17.3259C85.0678 17.1567 84.5948 17.1191 84.1407 17.2176C83.6867 17.3161 83.2719 17.5465 82.9482 17.8798C82.6245 18.2131 82.4064 18.6345 82.3213 19.0913C82.2361 19.548 82.2876 20.0197 82.4694 20.4473C82.6512 20.8748 82.9551 21.2392 83.3431 21.4948C83.7311 21.7504 84.1859 21.8857 84.6505 21.8839C84.9687 21.8974 85.2862 21.8435 85.5821 21.7257C85.8781 21.6079 86.1458 21.4289 86.3677 21.2004C86.5896 20.9719 86.7606 20.699 86.8697 20.3998C86.9788 20.1005 87.0233 19.7816 87.0005 19.4639Z" fill="white"/>
<path d="M99.13 21.4439C99.13 23.7239 97.13 24.6939 95.01 24.6939C94.1453 24.7717 93.2772 24.5884 92.5178 24.1677C91.7584 23.747 91.1426 23.1082 90.75 22.3339L93.33 20.8739C93.4322 21.2307 93.6538 21.5416 93.9578 21.7546C94.2618 21.9676 94.6297 22.0697 95 22.0439C95.71 22.0439 96.07 21.8239 96.07 21.4239C96.07 20.3339 91.2 20.9139 91.2 17.4839C91.2 15.3239 93.02 14.2439 95.08 14.2439C95.863 14.2088 96.641 14.3865 97.3311 14.758C98.0213 15.1295 98.598 15.681 99 16.3539L96.42 17.7139C96.306 17.4559 96.1198 17.2365 95.8838 17.0821C95.6477 16.9277 95.372 16.845 95.09 16.8439C94.57 16.8439 94.26 17.0439 94.26 17.3939C94.26 18.5339 99.13 17.7839 99.13 21.4439Z" fill="white"/>
<path d="M110.001 14.5139V24.4139H107.001V23.4839C106.66 23.8956 106.227 24.2213 105.738 24.435C105.248 24.6487 104.715 24.7442 104.181 24.7139C102.181 24.7139 100.471 23.2839 100.471 20.6139V14.5139H103.471V20.1639C103.447 20.4001 103.475 20.6386 103.553 20.863C103.631 21.0873 103.756 21.2921 103.92 21.4633C104.085 21.6344 104.285 21.7678 104.506 21.8543C104.727 21.9407 104.964 21.9781 105.201 21.9639C106.281 21.9639 107.041 21.3239 107.041 19.9639V14.5139H110.001Z" fill="white"/>
<path d="M127 18.3338V24.4138H124V18.5938C124 17.5938 123.53 16.9738 122.58 16.9738C121.63 16.9738 121.03 17.6638 121.03 18.8338V24.4138H118.03V18.5938C118.03 17.5938 117.56 16.9738 116.61 16.9738C115.66 16.9738 115.06 17.6638 115.06 18.8338V24.4138H112.06V14.5138H115.06V15.4238C115.371 15.0218 115.776 14.7034 116.241 14.4974C116.705 14.2914 117.214 14.2042 117.72 14.2438C118.227 14.2173 118.733 14.3233 119.187 14.5512C119.641 14.7791 120.028 15.1212 120.31 15.5438C120.64 15.1022 121.076 14.7514 121.578 14.5241C122.079 14.2967 122.631 14.2003 123.18 14.2438C125.52 14.2438 127 15.8638 127 18.3338Z" fill="white"/>
<path d="M129.52 14.4538C130.735 14.4538 131.72 13.4688 131.72 12.2538C131.72 11.0388 130.735 10.0538 129.52 10.0538C128.305 10.0538 127.32 11.0388 127.32 12.2538C127.32 13.4688 128.305 14.4538 129.52 14.4538Z" fill="white"/>
</svg>
