<svg width="140" height="31" viewBox="0 0 140 31" fill="none" xmlns="http://www.w3.org/2000/svg">
<path d="M22.4191 14.0849C22.0401 14.4662 21.7499 14.9264 21.569 15.4326C21.3882 15.9389 21.3213 16.4788 21.373 17.0139L21.355 16.9959C21.4082 17.6258 21.3232 18.2596 21.1061 18.8533C20.889 19.4469 20.5451 19.986 20.0982 20.433C19.6512 20.8799 19.112 21.224 18.5183 21.441C17.9247 21.6581 17.2908 21.7431 16.661 21.6899L16.6791 21.7079C15.9257 21.6378 15.1689 21.8017 14.512 22.1774C13.8552 22.5531 13.3302 23.1222 13.0087 23.8072C12.6872 24.4922 12.5847 25.2596 12.7153 26.005C12.846 26.7503 13.2033 27.4372 13.7386 27.972C14.2739 28.5068 14.9611 28.8635 15.7065 28.9934C16.452 29.1234 17.2193 29.0202 17.904 28.6981C18.5887 28.3759 19.1573 27.8505 19.5324 27.1933C19.9075 26.5361 20.0708 25.7793 20 25.0259L20.019 25.0439C19.9658 24.4141 20.0507 23.7802 20.2678 23.1865C20.4849 22.5929 20.829 22.0538 21.2759 21.6068C21.7229 21.1599 22.262 20.8158 22.8556 20.5988C23.4494 20.3817 24.0831 20.2967 24.713 20.3499L24.694 20.3319C25.3095 20.3872 25.929 20.2863 26.4951 20.0385C27.0611 19.7907 27.5554 19.404 27.9322 18.9143C28.309 18.4246 28.5562 17.8476 28.6507 17.237C28.7451 16.6263 28.684 16.0017 28.4727 15.4209C28.2615 14.8402 27.9071 14.3222 27.4424 13.9149C26.9777 13.5076 26.4178 13.2242 25.8144 13.091C25.2109 12.9578 24.5837 12.979 23.9907 13.1527C23.3976 13.3265 22.8582 13.6471 22.4221 14.0849H22.4191Z" fill="white"/>
<path d="M15.0412 19.3499L15.0222 19.3319C15.5575 19.3858 16.0981 19.3201 16.605 19.1395C17.1118 18.9589 17.5722 18.668 17.9528 18.2877C18.3333 17.9074 18.6247 17.4472 18.8056 16.9405C18.9866 16.4338 19.0527 15.8933 18.9992 15.3579L19.0182 15.3759C18.965 14.746 19.05 14.1122 19.267 13.5185C19.4841 12.9249 19.8282 12.3858 20.2751 11.9388C20.7221 11.4919 21.2612 11.1478 21.8548 10.9308C22.4485 10.7136 23.0823 10.6287 23.7122 10.6819L23.6932 10.6639C24.4467 10.7347 25.2036 10.5712 25.8608 10.196C26.5181 9.8207 27.0435 9.25183 27.3655 8.56696C27.6875 7.8821 27.7904 7.11457 27.6602 6.36906C27.53 5.62355 27.173 4.93637 26.6378 4.40123C26.1027 3.8661 25.4155 3.50906 24.67 3.37884C23.9245 3.24861 23.157 3.35152 22.4721 3.67354C21.7872 3.99555 21.2184 4.521 20.8431 5.17821C20.4678 5.83541 20.3044 6.59238 20.3752 7.34586L20.3572 7.32686C20.4105 7.95675 20.3257 8.59069 20.1087 9.18441C19.8917 9.77813 19.5476 10.3173 19.1007 10.7644C18.6537 11.2113 18.1145 11.5554 17.5208 11.7724C16.927 11.9894 16.2931 12.0742 15.6632 12.0209L15.6812 12.0399C15.1459 11.986 14.6052 12.0517 14.0984 12.2323C13.5916 12.4128 13.1312 12.7038 12.7506 13.0841C12.37 13.4644 12.0787 13.9246 11.8977 14.4313C11.7168 14.938 11.6507 15.4785 11.7042 16.0139L11.6862 15.9959C11.7392 16.6257 11.6541 17.2595 11.437 17.8531C11.2198 18.4466 10.8758 18.9857 10.4289 19.4326C9.98194 19.8795 9.4429 20.2235 8.84934 20.4407C8.25578 20.6578 7.62199 20.7429 6.99218 20.6899L7.01018 20.7079C6.2567 20.6371 5.49973 20.8005 4.84252 21.1758C4.18532 21.5511 3.65987 22.1199 3.33786 22.8048C3.01584 23.4897 2.91292 24.2572 3.04315 25.0027C3.17338 25.7482 3.53042 26.4354 4.06555 26.9705C4.60069 27.5057 5.28787 27.8627 6.03338 27.9929C6.77889 28.1231 7.54642 28.0202 8.23129 27.6982C8.91615 27.3762 9.48502 26.8508 9.86028 26.1936C10.2356 25.5363 10.399 24.7794 10.3282 24.0259L10.3472 24.0439C10.294 23.414 10.379 22.7802 10.5961 22.1865C10.8131 21.5929 11.1572 21.0538 11.6041 20.6068C12.0511 20.1599 12.5902 19.8158 13.1838 19.5988C13.7775 19.3817 14.4113 19.2967 15.0412 19.3499Z" fill="white"/>
<path d="M8.34021 17.3428C8.71923 16.9616 9.00941 16.5014 9.19005 15.9951C9.37069 15.4888 9.43733 14.9488 9.38521 14.4138L9.4042 14.4318C9.351 13.8018 9.43596 13.1677 9.65317 12.5739C9.87038 11.9801 10.2146 11.4409 10.6618 10.9939C11.109 10.5469 11.6483 10.2029 12.2422 9.98599C12.8361 9.76903 13.4702 9.68433 14.1002 9.73781L14.0812 9.71981C14.8344 9.79038 15.5911 9.62689 16.248 9.25165C16.9049 8.87642 17.43 8.30769 17.7519 7.62304C18.0737 6.93838 18.1765 6.17113 18.0463 5.4259C17.9161 4.68067 17.5591 3.99375 17.0242 3.45881C16.4893 2.92387 15.8023 2.56695 15.0571 2.43673C14.3119 2.3065 13.5446 2.40932 12.86 2.73114C12.1753 3.05296 11.6066 3.57813 11.2314 4.23503C10.8561 4.89193 10.6926 5.64859 10.7632 6.40181L10.7452 6.38381C10.7984 7.01366 10.7134 7.64753 10.4963 8.24117C10.2792 8.83481 9.93523 9.37392 9.48827 9.82088C9.04132 10.2678 8.5022 10.6119 7.90856 10.8289C7.31492 11.046 6.68106 11.131 6.05121 11.0778L6.06921 11.0958C5.45378 11.0406 4.83437 11.1417 4.26839 11.3896C3.70241 11.6375 3.20816 12.0243 2.83145 12.5141C2.45474 13.0038 2.20776 13.5808 2.11338 14.1914C2.01901 14.8021 2.0803 15.4267 2.29157 16.0073C2.50284 16.588 2.85727 17.1059 3.322 17.5131C3.78673 17.9204 4.34673 18.2037 4.95011 18.3369C5.55348 18.47 6.18071 18.4487 6.77368 18.275C7.36664 18.1012 7.90614 17.7806 8.3422 17.3428H8.34021Z" fill="white"/>
<path d="M39.3164 7.3689H42.2864V21.8219H39.3164V7.3689Z" fill="white"/>
<path d="M43.9689 16.8728C43.9648 15.8342 44.269 14.8176 44.843 13.952C45.417 13.0864 46.235 12.4106 47.1934 12.0103C48.1518 11.6099 49.2074 11.503 50.2266 11.7031C51.2458 11.9032 52.1827 12.4012 52.9186 13.1342C53.6545 13.8671 54.1563 14.802 54.3605 15.8204C54.5647 16.8388 54.462 17.8949 54.0655 18.8549C53.669 19.8148 52.9965 20.6356 52.1332 21.213C51.2698 21.7905 50.2546 22.0988 49.2159 22.0988C48.5265 22.1067 47.8424 21.977 47.2036 21.7174C46.5648 21.4578 45.9842 21.0735 45.4957 20.587C45.0071 20.1004 44.6205 19.5213 44.3584 18.8836C44.0962 18.2459 43.9638 17.5623 43.9689 16.8728ZM51.4929 16.8728C51.4805 16.4251 51.3364 15.991 51.0787 15.6247C50.8209 15.2585 50.4609 14.9763 50.0437 14.8136C49.6264 14.6508 49.1705 14.6146 48.7328 14.7096C48.2951 14.8046 47.8951 15.0264 47.5828 15.3475C47.2706 15.6685 47.0598 16.0745 46.9771 16.5147C46.8943 16.9548 46.943 17.4096 47.1173 17.8222C47.2916 18.2348 47.5836 18.5868 47.9568 18.8343C48.3301 19.0818 48.7681 19.2138 49.2159 19.2138C49.5226 19.222 49.8277 19.1665 50.112 19.0509C50.3962 18.9353 50.6534 18.7621 50.8673 18.5422C51.0812 18.3222 51.2473 18.0603 51.3549 17.773C51.4626 17.4857 51.5096 17.1792 51.4929 16.8728Z" fill="white"/>
<path d="M66.3009 11.9229V21.3229C66.3009 24.6489 63.7069 26.0549 61.0739 26.0549C60.1469 26.1243 59.2186 25.937 58.3909 25.5137C57.5633 25.0903 56.8682 24.4472 56.3819 23.6549L58.9159 22.1899C59.1203 22.6029 59.446 22.9436 59.8493 23.1665C60.2527 23.3893 60.7145 23.4837 61.1729 23.4369C61.4659 23.4775 61.7643 23.4517 62.046 23.3614C62.3276 23.2711 62.5854 23.1186 62.8002 22.9153C63.015 22.7119 63.1813 22.4629 63.2869 22.1865C63.3924 21.9102 63.4344 21.6137 63.4099 21.3189V20.4139C63.0621 20.8394 62.6195 21.1775 62.1174 21.401C61.6153 21.6245 61.0679 21.7272 60.5189 21.7009C59.2127 21.6597 57.9738 21.1119 57.0644 20.1733C56.155 19.2348 55.6465 17.9792 55.6465 16.6724C55.6465 15.3656 56.155 14.11 57.0644 13.1715C57.9738 12.2329 59.2127 11.6851 60.5189 11.6439C61.0679 11.6176 61.6153 11.7203 62.1174 11.9438C62.6195 12.1673 63.0621 12.5054 63.4099 12.9309V11.9209L66.3009 11.9229ZM63.4109 16.6739C63.4309 16.1953 63.3071 15.7216 63.0556 15.3139C62.8041 14.9061 62.4363 14.583 61.9996 14.3861C61.5629 14.1891 61.0773 14.1274 60.6052 14.2088C60.1331 14.2902 59.6962 14.511 59.3506 14.8429C59.0051 15.1747 58.7668 15.6023 58.6663 16.0707C58.5659 16.5391 58.6079 17.0269 58.7871 17.4712C58.9662 17.9155 59.2742 18.2961 59.6714 18.5639C60.0686 18.8317 60.5369 18.9745 61.0159 18.9739C61.328 18.9957 61.6411 18.9519 61.9352 18.8453C62.2293 18.7387 62.4978 18.5716 62.7234 18.355C62.949 18.1383 63.1268 17.8768 63.2452 17.5872C63.3636 17.2977 63.4201 16.9866 63.4109 16.6739Z" fill="white"/>
<path d="M67.9826 16.8728C67.9785 15.8342 68.2826 14.8176 68.8567 13.952C69.4307 13.0864 70.2487 12.4106 71.2071 12.0103C72.1655 11.6099 73.2211 11.503 74.2403 11.7031C75.2595 11.9032 76.1964 12.4012 76.9323 13.1342C77.6682 13.8671 78.17 14.802 78.3742 15.8204C78.5784 16.8388 78.4757 17.8949 78.0792 18.8549C77.6827 19.8148 77.0102 20.6356 76.1469 21.213C75.2835 21.7905 74.2683 22.0988 73.2296 22.0988C72.5402 22.1067 71.856 21.977 71.2173 21.7174C70.5785 21.4578 69.9979 21.0735 69.5094 20.587C69.0208 20.1004 68.6342 19.5213 68.3721 18.8836C68.1099 18.2459 67.9775 17.5623 67.9826 16.8728ZM75.5066 16.8728C75.4942 16.4251 75.3501 15.991 75.0924 15.6247C74.8346 15.2585 74.4746 14.9763 74.0574 14.8136C73.6401 14.6508 73.1841 14.6146 72.7465 14.7096C72.3088 14.8046 71.9088 15.0264 71.5965 15.3475C71.2843 15.6685 71.0735 16.0745 70.9907 16.5147C70.9079 16.9548 70.9567 17.4096 71.131 17.8222C71.3053 18.2348 71.5973 18.5868 71.9705 18.8343C72.3438 19.0818 72.7817 19.2138 73.2296 19.2138C73.5363 19.222 73.8414 19.1665 74.1256 19.0509C74.4099 18.9353 74.6671 18.7621 74.881 18.5422C75.0949 18.3222 75.261 18.0603 75.3686 17.773C75.4763 17.4857 75.5233 17.1792 75.5066 16.8728Z" fill="white"/>
<path d="M79.8613 9.26992C79.8613 8.91747 79.9658 8.57294 80.1616 8.2799C80.3574 7.98685 80.6358 7.75844 80.9614 7.62357C81.287 7.48869 81.6453 7.4534 81.991 7.52216C82.3366 7.59092 82.6542 7.76064 82.9034 8.00986C83.1526 8.25907 83.3223 8.57659 83.3911 8.92227C83.4598 9.26794 83.4245 9.62624 83.2897 9.95186C83.1548 10.2775 82.9264 10.5558 82.6333 10.7516C82.3403 10.9474 81.9958 11.0519 81.6433 11.0519C81.1722 11.0472 80.7216 10.858 80.3884 10.5248C80.0553 10.1916 79.866 9.74108 79.8613 9.26992ZM80.1613 11.9229H83.1323V21.8229H80.1573L80.1613 11.9229Z" fill="white"/>
<path d="M95.9557 16.8729C95.99 17.5272 95.8947 18.1818 95.6751 18.7991C95.4556 19.4164 95.1162 19.9842 94.6764 20.4699C94.2367 20.9555 93.7052 21.3495 93.1127 21.6291C92.5201 21.9086 91.8782 22.0683 91.2237 22.0989C90.6733 22.1289 90.1232 22.0361 89.6131 21.8272C89.103 21.6182 88.6459 21.2984 88.2747 20.8909V25.7819H85.3047V11.9229H88.2747V12.8529C88.646 12.4457 89.1033 12.1261 89.6133 11.9174C90.1234 11.7086 90.6734 11.6159 91.2237 11.6459C91.8783 11.6764 92.5204 11.836 93.1131 12.1156C93.7058 12.3952 94.2373 12.7892 94.6771 13.275C95.1169 13.7608 95.4563 14.3288 95.6757 14.9463C95.8951 15.5637 95.9903 16.2185 95.9557 16.8729ZM92.9857 16.8729C92.9741 16.4096 92.8261 15.96 92.5602 15.5803C92.2943 15.2007 91.9224 14.9079 91.491 14.7387C91.0595 14.5694 90.5877 14.5311 90.1346 14.6287C89.6815 14.7262 89.2673 14.9552 88.9437 15.287C88.6201 15.6189 88.4016 16.0387 88.3155 16.4942C88.2294 16.9496 88.2795 17.4202 88.4596 17.8473C88.6396 18.2744 88.9417 18.6388 89.3279 18.8951C89.7141 19.1513 90.1672 19.288 90.6307 19.2879C90.9489 19.3021 91.2665 19.2488 91.5627 19.1316C91.8588 19.0145 92.1269 18.836 92.3492 18.608C92.5716 18.3799 92.7432 18.1075 92.8529 17.8085C92.9626 17.5095 93.0079 17.1906 92.9857 16.8729Z" fill="white"/>
<path d="M105.12 18.8518C105.12 21.1288 103.141 22.0988 101.003 22.0988C100.139 22.177 99.2718 21.9944 98.5129 21.5743C97.754 21.1543 97.1386 20.5163 96.7461 19.7428L99.3191 18.2778C99.4232 18.6353 99.6468 18.9464 99.9525 19.1589C100.258 19.3715 100.628 19.4728 100.999 19.4458C101.711 19.4458 102.068 19.2278 102.068 18.8328C102.068 17.7428 97.1971 18.3178 97.1971 14.8928C97.1971 12.7338 99.0191 11.6458 101.078 11.6458C101.852 11.6213 102.618 11.8049 103.297 12.1774C103.976 12.55 104.543 13.0978 104.938 13.7638L102.404 15.1298C102.293 14.8705 102.108 14.6496 101.872 14.4947C101.636 14.3398 101.36 14.2578 101.078 14.2588C100.563 14.2588 100.246 14.4588 100.246 14.8128C100.25 15.9418 105.12 15.1888 105.12 18.8518Z" fill="white"/>
<path d="M115.971 11.9229V21.8229H113.001V20.8919C112.658 21.3027 112.223 21.6264 111.731 21.8364C111.239 22.0464 110.705 22.1367 110.171 22.0999C108.171 22.0999 106.471 20.6749 106.471 17.9999V11.9229H109.441V17.5649C109.416 17.8007 109.443 18.0391 109.52 18.2634C109.596 18.4878 109.721 18.6928 109.885 18.8641C110.049 19.0354 110.248 19.1689 110.469 19.2554C110.689 19.3419 110.926 19.3793 111.163 19.3649C112.252 19.3649 113.004 18.7319 113.004 17.3259V11.9259L115.971 11.9229Z" fill="white"/>
<path d="M132.999 15.7438V21.8218H130.029V16.0008C130.029 15.0108 129.554 14.3778 128.604 14.3778C127.614 14.3778 127.059 15.0708 127.059 16.2388V21.8218H124.09V16.0008C124.09 15.0108 123.615 14.3778 122.664 14.3778C121.674 14.3778 121.12 15.0708 121.12 16.2388V21.8218H118.15V11.9218H121.12V12.8318C121.428 12.4281 121.832 12.1079 122.295 11.9006C122.759 11.6932 123.267 11.6053 123.773 11.6448C124.281 11.6199 124.787 11.7272 125.242 11.9561C125.696 12.1849 126.083 12.5277 126.366 12.9508C126.695 12.5081 127.131 12.1561 127.633 11.9277C128.135 11.6993 128.687 11.602 129.237 11.6448C131.51 11.6458 132.999 13.2688 132.999 15.7438Z" fill="white"/>
<path d="M135.513 11.8619C136.73 11.8619 137.717 10.8751 137.717 9.65786C137.717 8.44062 136.73 7.45386 135.513 7.45386C134.296 7.45386 133.309 8.44062 133.309 9.65786C133.309 10.8751 134.296 11.8619 135.513 11.8619Z" fill="white"/>
</svg>
