<svg width="469" height="805" viewBox="0 0 469 805" fill="none" xmlns="http://www.w3.org/2000/svg">
<path opacity="0.08" fill-rule="evenodd" clip-rule="evenodd" d="M273.631 680.872C442.436 768.853 639.315 708.215 717.593 558.211C795.871 408.208 732.941 212.157 564.137 124.176C395.333 36.1946 198.453 96.8321 120.175 246.836C41.8972 396.84 104.827 592.89 273.631 680.872ZM236.335 752.343C440.804 858.913 688.289 788.685 789.109 595.485C889.928 402.285 805.903 159.274 601.433 52.7039C396.964 -53.8659 149.479 16.3618 48.6595 209.562C-52.1598 402.762 31.8652 645.774 236.335 752.343Z" fill="#6366F1"/>
<path opacity="0.08" fill-rule="evenodd" clip-rule="evenodd" d="M298.401 633.404C434.98 704.59 598.309 656.971 664.332 530.451C730.355 403.932 675.946 242.827 539.366 171.642C402.787 100.457 239.458 148.076 173.435 274.595C107.413 401.114 161.822 562.219 298.401 633.404ZM288.455 652.464C434.545 728.606 611.369 678.429 683.403 540.391C755.436 402.353 695.402 228.725 549.312 152.583C403.222 76.4404 226.398 126.617 154.364 264.655C82.3307 402.693 142.365 576.321 288.455 652.464Z" fill="#6366F1"/>
</svg>
